<svg xmlns="http://www.w3.org/2000/svg" xmlns:xlink="http://www.w3.org/1999/xlink" width="1440" height="480" viewBox="0 0 1080 360"><path d="M0 360h1080V0H0z" fill="#fff"/><path d="M135 288h380.455V43.2H135z" fill="#fff"/><clipPath id="a"><path transform="matrix(1 0 0 -1 0 360)" d="M135 72h380.455v244.8H135z"/></clipPath><g clip-path="url(#a)"><path stroke-width=".8" stroke-linecap="round" stroke-linejoin="round" fill="none" stroke="#d5d6d5" d="M183.736 288V43.2"/></g><symbol id="b"><path transform="translate(-.029) scale(.001)" d="M503 84V0H30c-1 21 3 41 11 61 12 32 31 63 57 95 26 31 65 67 115 109 78 63 130 113 158 151 27 37 41 72 41 106s-13 64-38 88-57 36-97 36c-42 0-76-13-101-38-26-26-39-61-39-106l-90 10c6 67 29 118 69 154 40 35 95 53 163 53s123-20 163-58 60-85 60-141c0-29-6-57-18-85s-31-57-58-87c-27-31-72-73-135-126-53-44-87-74-102-90s-27-32-37-48h351"/></symbol><use xlink:href="#b" transform="matrix(14.96 0 0 -14.96 180.013 307.003)" fill="#333"/><clipPath id="c"><path transform="matrix(1 0 0 -1 0 360)" d="M135 72h380.455v244.8H135z"/></clipPath><g clip-path="url(#c)"><path stroke-width=".8" stroke-linecap="round" stroke-linejoin="round" fill="none" stroke="#d5d6d5" d="M246.621 288V43.2"/></g><symbol id="d"><path transform="translate(-.013) scale(.001)" d="M323 0v171H13v81l326 464h72V252h97v-81h-97V0h-88m0 252v323L99 252h224"/></symbol><use xlink:href="#d" transform="matrix(14.96 0 0 -14.96 242.66 307.003)" fill="#333"/><clipPath id="e"><path transform="matrix(1 0 0 -1 0 360)" d="M135 72h380.455v244.8H135z"/></clipPath><g clip-path="url(#e)"><path stroke-width=".8" stroke-linecap="round" stroke-linejoin="round" fill="none" stroke="#d5d6d5" d="M309.506 288V43.2"/></g><symbol id="f"><path transform="matrix(.001 0 0 .001 -.038 .011)" d="m498 541-88-7c-8 34-19 59-33 75-24 24-54 37-88 37-28 0-53-8-74-23-28-20-49-50-65-88-16-39-25-94-25-166 21 32 47 55 78 71 30 16 62 24 96 24 58 0 108-22 149-65s62-99 62-167c0-45-10-87-29-125-20-39-46-68-80-88s-72-30-115-30c-74 0-133 26-179 80-46 53-69 142-69 266 0 138 25 238 76 302 44 54 104 82 180 82 56 0 103-16 139-48s57-75 65-130M139 232c0-30 6-59 19-87 12-28 30-49 54-63 23-15 47-22 73-22 36 0 68 15 95 45 26 30 40 70 40 122 0 49-14 88-40 117-26 28-59 43-99 43s-73-15-101-43c-28-29-41-66-41-112"/></symbol><use xlink:href="#f" transform="matrix(14.96 0 0 -14.96 305.918 307.168)" fill="#333"/><clipPath id="g"><path transform="matrix(1 0 0 -1 0 360)" d="M135 72h380.455v244.8H135z"/></clipPath><g clip-path="url(#g)"><path stroke-width=".8" stroke-linecap="round" stroke-linejoin="round" fill="none" stroke="#d5d6d5" d="M372.391 288V43.2"/></g><symbol id="h"><path transform="matrix(.001 0 0 .001 -.041 .011)" d="M177 388c-37 13-64 32-82 57-18 24-26 54-26 89 0 52 18 95 56 131s88 54 150 54 113-19 151-55 57-80 57-132c0-34-9-63-26-87-18-25-44-44-80-57 44-14 77-37 100-69s35-70 35-114c0-62-22-113-65-154-44-42-101-62-171-62-71 0-128 20-171 62-43 41-64 93-64 156 0 46 11 85 35 117 23 31 57 52 101 64m-18 149c0-34 11-62 33-83 22-22 50-32 85-32 34 0 61 10 83 32 22 21 33 47 33 78 0 32-12 59-34 81s-50 33-83 33c-34 0-62-11-84-32-22-22-33-47-33-77m-28-330c0-26 6-50 18-73 12-24 29-42 53-55 23-13 48-19 75-19 42 0 76 13 104 40 27 27 41 62 41 104s-14 76-42 104-64 42-106 42-76-14-103-41c-27-28-40-62-40-102"/></symbol><use xlink:href="#h" transform="matrix(14.96 0 0 -14.96 368.848 307.168)" fill="#333"/><clipPath id="i"><path transform="matrix(1 0 0 -1 0 360)" d="M135 72h380.455v244.8H135z"/></clipPath><g clip-path="url(#i)"><path stroke-width=".8" stroke-linecap="round" stroke-linejoin="round" fill="none" stroke="#d5d6d5" d="M435.276 288V43.2"/></g><symbol id="j"><path transform="translate(-.109) scale(.001)" d="M373 0h-88v560c-22-20-50-41-84-61s-65-35-92-45v85c49 23 92 51 129 84 36 32 62 64 78 96h57V0"/></symbol><symbol id="k"><path transform="matrix(.001 0 0 .001 -.042 .011)" d="M42 353c0 84 8 152 26 204 17 52 43 92 77 120s78 42 130 42c38 0 72-8 101-24 28-16 52-38 71-67s34-64 45-106c10-42 16-99 16-169 0-84-9-152-26-204s-43-91-77-119-78-41-130-41c-70 0-124 24-163 73-47 59-70 156-70 291m90 0c0-118 13-196 41-235 27-39 61-58 102-58 40 0 73 19 101 58s42 117 42 235-14 196-42 235c-28 38-62 58-102 58-41 0-73-17-97-51-30-44-45-125-45-242"/></symbol><use xlink:href="#j" transform="matrix(14.96 0 0 -14.96 428.594 307.003)" fill="#333"/><use xlink:href="#k" transform="matrix(14.96 0 0 -14.96 435.91 307.168)" fill="#333"/><clipPath id="l"><path transform="matrix(1 0 0 -1 0 360)" d="M135 72h380.455v244.8H135z"/></clipPath><g clip-path="url(#l)"><path stroke-width=".8" stroke-linecap="round" stroke-linejoin="round" fill="none" stroke="#d5d6d5" d="M498.161 288V43.2"/></g><use xlink:href="#j" transform="matrix(14.96 0 0 -14.96 491.48 307.003)" fill="#333"/><use xlink:href="#b" transform="matrix(14.96 0 0 -14.96 498.6 307.003)" fill="#333"/><symbol id="m"><path transform="matrix(.001 0 0 .001 -.045 .011)" d="m45 230 89 8c4-36 14-66 30-89 15-23 39-41 72-55 32-14 69-21 110-21 36 0 67 5 95 16 28 10 48 25 62 44 13 18 20 39 20 61s-7 42-20 59c-13 16-34 30-64 42-19 8-61 19-127 35s-112 31-138 45c-34 18-60 40-77 66s-25 56-25 90c0 36 10 69 31 101 20 31 50 55 90 71 39 16 83 25 131 25 53 0 100-9 140-26s72-42 94-75c22-34 33-71 35-113l-91-7c-5 45-21 79-49 103-28 23-70 35-125 35-58 0-99-11-125-32s-39-46-39-76c0-26 9-47 27-63 18-17 66-34 143-52s130-33 159-45c41-20 72-44 92-73 20-30 30-64 30-102s-11-74-33-108-54-60-94-78c-41-18-87-27-138-27-65 0-119 9-163 27s-78 47-103 85-38 81-39 129"/></symbol><symbol id="n"><path transform="matrix(.001 0 0 .001 -.037 .011)" d="m421 167 91-11c-15-54-42-95-80-124-39-29-88-43-148-43-76 0-137 23-181 69S37 170 37 255c0 87 22 155 67 203 44 48 103 72 175 72 69 0 126-24 170-71s66-113 66-199c0-6-1-13-1-23H127c3-58 19-101 48-131s65-45 109-45c32 0 60 8 83 25 22 16 40 43 54 81M132 309h290c-4 44-15 76-33 98-28 34-65 51-109 51-41 0-75-14-102-41-28-27-43-63-46-108"/></symbol><symbol id="o"><path transform="matrix(.001 0 0 .001 -.031 .011)" d="m31 155 87 13c4-35 18-62 40-80s54-27 94-27 70 8 90 24c19 16 29 36 29 58 0 20-9 35-26 47-12 8-42 18-90 30-64 16-109 30-134 42s-44 28-57 49-19 44-19 70c0 23 5 44 16 64 10 20 25 36 43 49 14 10 32 18 56 25s49 11 76 11c40 0 76-6 107-18s54-27 69-47c14-20 24-47 30-80l-86-12c-4 26-16 47-34 62-19 15-45 23-79 23-41 0-70-7-87-20-18-14-26-29-26-47 0-12 3-22 11-31 7-10 18-17 34-23 8-4 34-11 77-23 62-16 106-30 130-40 24-11 44-27 58-47s21-45 21-75-9-57-26-83-42-45-74-59-69-21-109-21C184-11 133 2 98 30 62 58 40 99 31 155"/></symbol><symbol id="p"><path transform="translate(-.066) scale(.001)" d="M66 615v101h88V615H66M66 0v519h88V0H66"/></symbol><symbol id="q"><path transform="matrix(.001 0 0 .001 -.033 .011)" d="M33 259c0 96 26 167 80 214 44 38 99 57 163 57 71 0 129-24 175-70 45-47 68-111 68-193 0-67-10-120-30-158s-50-68-88-89c-38-20-80-31-125-31-73 0-132 23-176 69-45 46-67 113-67 201m91 0c0-66 14-116 43-149 28-33 65-49 109-49s80 16 109 49 44 84 44 152c0 64-15 112-44 146-30 33-66 50-109 50-44 0-81-17-109-50-29-33-43-83-43-149"/></symbol><symbol id="r"><path transform="translate(-.066) scale(.001)" d="M66 0v519h79v-74c38 56 93 85 165 85 31 0 60-6 86-17s46-26 59-44 22-40 27-65c3-16 5-45 5-85V0h-88v315c0 36-4 62-10 80-7 18-19 32-36 43-18 10-38 16-61 16-38 0-71-12-98-36s-40-69-40-135V0H66"/></symbol><symbol id="t"><path transform="translate(-.076) scale(.001)" d="M76 0v716h97l376-562v562h91V0h-97L167 563V0H76"/></symbol><symbol id="u"><path transform="matrix(.001 0 0 .001 -.064 .011)" d="M406 0v76c-41-58-96-87-165-87-31 0-60 6-86 17s-46 26-59 44-22 39-27 65c-4 17-5 44-5 82v322h88V231c0-46 1-77 5-93 6-23 17-41 35-54 18-14 40-20 67-20 26 0 50 6 74 20 23 13 39 31 49 55 9 23 14 57 14 102v278h88V0h-78"/></symbol><symbol id="v"><path transform="translate(-.066) scale(.001)" d="M66 0v519h79v-73c16 25 37 45 64 61 27 15 58 23 93 23 38 0 69-8 94-24 24-16 42-39 52-67 41 60 94 91 160 91 52 0 91-15 119-43s42-72 42-131V0h-88v327c0 34-3 59-9 75s-16 28-31 38c-15 9-32 14-52 14-37 0-67-13-91-37s-36-63-36-116V0h-88v337c0 39-8 68-22 88-14 19-38 29-70 29-25 0-48-7-69-20s-36-32-45-57c-10-25-14-61-14-108V0H66"/></symbol><symbol id="w"><path transform="matrix(.001 0 0 .001 -.065 .011)" d="M147 0H65v716h88V460c37 46 84 70 142 70 32 0 62-7 91-19 28-13 52-31 70-54 18-24 33-52 43-85s16-68 16-105c0-89-22-158-66-206s-97-72-158-72c-62 0-110 25-144 76V0m-1 263c0-62 8-107 25-135 28-45 65-67 113-67 38 0 71 16 99 50 28 33 42 83 42 149 0 67-14 117-40 149-27 32-59 49-97 49-39 0-72-17-100-50-28-34-42-82-42-145"/></symbol><symbol id="x"><path transform="translate(-.065) scale(.001)" d="M65 0v519h79v-79c20 36 38 60 56 72 17 12 36 18 56 18 30 0 60-10 91-28l-31-82c-22 12-43 19-64 19-20 0-37-6-52-17-16-12-27-28-33-48-10-32-14-66-14-103V0H65"/></symbol><use xlink:href="#m" transform="matrix(16.32 0 0 -16.32 265.65 325.823)" fill="#333"/><use xlink:href="#n" transform="matrix(16.32 0 0 -16.32 276.404 325.823)" fill="#333"/><use xlink:href="#o" transform="matrix(16.32 0 0 -16.32 285.38 325.823)" fill="#333"/><use xlink:href="#o" transform="matrix(16.32 0 0 -16.32 293.54 325.823)" fill="#333"/><use xlink:href="#p" transform="matrix(16.32 0 0 -16.32 302.271 325.644)" fill="#333"/><use xlink:href="#q" transform="matrix(16.32 0 0 -16.32 305.356 325.823)" fill="#333"/><use xlink:href="#r" transform="matrix(16.32 0 0 -16.32 314.968 325.644)" fill="#333"/><use xlink:href="#s" transform="matrix(16.32 0 0 -16.32 312.112 330.948)" fill="#333"/><use xlink:href="#t" transform="matrix(16.32 0 0 -16.32 328.742 325.644)" fill="#333"/><use xlink:href="#u" transform="matrix(16.32 0 0 -16.32 340.33 325.823)" fill="#333"/><use xlink:href="#v" transform="matrix(16.32 0 0 -16.32 349.436 325.644)" fill="#333"/><use xlink:href="#w" transform="matrix(16.32 0 0 -16.32 363.014 325.823)" fill="#333"/><use xlink:href="#n" transform="matrix(16.32 0 0 -16.32 371.631 325.823)" fill="#333"/><use xlink:href="#x" transform="matrix(16.32 0 0 -16.32 381.162 325.644)" fill="#333"/><clipPath id="y"><path transform="matrix(1 0 0 -1 0 360)" d="M135 72h380.455v244.8H135z"/></clipPath><g clip-path="url(#y)"><path stroke-width=".8" stroke-linecap="round" stroke-linejoin="round" fill="none" stroke="#d5d6d5" d="M135 242.8h380.455"/></g><symbol id="z"><path transform="translate(-.091) scale(.001)" d="M91 0v100h100V0H91"/></symbol><symbol id="A"><path transform="matrix(.001 0 0 .001 -.042 .011)" d="m42 188 92 7c6-45 22-79 47-101 25-23 55-34 90-34 42 0 78 16 108 48 29 32 44 74 44 127 0 50-15 89-43 118s-65 44-110 44c-28 0-54-7-77-20s-41-29-53-49l-83 10 69 368h356v-84H197l-39-192c43 30 88 45 135 45 62 0 115-22 158-65 43-44 65-99 65-167 0-65-19-121-57-168-46-58-108-86-188-86-65 0-118 18-159 54-42 36-65 84-70 145"/></symbol><use xlink:href="#b" transform="matrix(14.96 0 0 -14.96 106.353 248.15)" fill="#333"/><use xlink:href="#z" transform="matrix(14.96 0 0 -14.96 115.598 248.15)" fill="#333"/><use xlink:href="#A" transform="matrix(14.96 0 0 -14.96 119.024 248.315)" fill="#333"/><clipPath id="B"><path transform="matrix(1 0 0 -1 0 360)" d="M135 72h380.455v244.8H135z"/></clipPath><g clip-path="url(#B)"><path stroke-width=".8" stroke-linecap="round" stroke-linejoin="round" fill="none" stroke="#d5d6d5" d="M135 193.646h380.455"/></g><symbol id="C"><path transform="matrix(.001 0 0 .001 -.042 .012)" d="m42 189 88 12c10-50 27-86 51-108s54-33 89-33c41 0 76 14 104 43 28 28 43 64 43 106 0 40-14 74-40 100s-60 40-100 40c-17 0-38-4-62-10l10 77c6-1 10-1 14-1 37 0 71 9 101 29s45 50 45 91c0 32-11 58-33 79s-50 32-84 32-63-11-86-32c-23-22-37-54-43-96l-88 15c10 59 35 105 73 137s85 49 142 49c39 0 75-9 108-26 32-17 57-40 75-68 18-29 27-60 27-92s-9-60-25-85c-17-26-42-46-74-60 42-10 74-31 98-61 24-31 36-70 36-116 0-62-23-115-69-158-46-44-103-65-172-65-64 0-116 18-157 56-42 37-65 85-71 145"/></symbol><use xlink:href="#C" transform="matrix(14.96 0 0 -14.96 106.547 199.177)" fill="#333"/><use xlink:href="#z" transform="matrix(14.96 0 0 -14.96 115.598 198.998)" fill="#333"/><use xlink:href="#k" transform="matrix(14.96 0 0 -14.96 119.024 199.162)" fill="#333"/><clipPath id="D"><path transform="matrix(1 0 0 -1 0 360)" d="M135 72h380.455v244.8H135z"/></clipPath><g clip-path="url(#D)"><path stroke-width=".8" stroke-linecap="round" stroke-linejoin="round" fill="none" stroke="#d5d6d5" d="M135 144.493h380.455"/></g><use xlink:href="#C" transform="matrix(14.96 0 0 -14.96 106.547 150.024)" fill="#333"/><use xlink:href="#z" transform="matrix(14.96 0 0 -14.96 115.598 149.845)" fill="#333"/><use xlink:href="#A" transform="matrix(14.96 0 0 -14.96 119.024 150.01)" fill="#333"/><clipPath id="E"><path transform="matrix(1 0 0 -1 0 360)" d="M135 72h380.455v244.8H135z"/></clipPath><g clip-path="url(#E)"><path stroke-width=".8" stroke-linecap="round" stroke-linejoin="round" fill="none" stroke="#d5d6d5" d="M135 95.34h380.455"/></g><use xlink:href="#d" transform="matrix(14.96 0 0 -14.96 106.113 100.692)" fill="#333"/><use xlink:href="#z" transform="matrix(14.96 0 0 -14.96 115.598 100.692)" fill="#333"/><use xlink:href="#k" transform="matrix(14.96 0 0 -14.96 119.024 100.856)" fill="#333"/><clipPath id="F"><path transform="matrix(1 0 0 -1 0 360)" d="M135 72h380.455v244.8H135z"/></clipPath><g clip-path="url(#F)"><path stroke-width=".8" stroke-linecap="round" stroke-linejoin="round" fill="none" stroke="#d5d6d5" d="M135 46.187h380.455"/></g><use xlink:href="#d" transform="matrix(14.96 0 0 -14.96 106.113 51.538)" fill="#333"/><use xlink:href="#z" transform="matrix(14.96 0 0 -14.96 115.598 51.538)" fill="#333"/><use xlink:href="#A" transform="matrix(14.96 0 0 -14.96 119.024 51.703)" fill="#333"/><symbol id="G"><path transform="translate(-.079) scale(.001)" d="M79 0v716h518v-85H174V412h396v-84H174V84h439V0H79"/></symbol><symbol id="H"><path transform="matrix(.001 0 0 .001 -.018 .006)" d="m258 79 13-78c-26-4-48-7-67-7-32 0-57 5-74 14-18 10-30 23-37 40-8 16-11 51-11 104v298H18v69h64v128l87 53V519h89v-69h-89V147c0-26 1-42 5-49 3-7 8-13 15-17s17-6 30-6c10 0 23 1 39 4"/></symbol><symbol id="I"><path transform="matrix(.001 0 0 .001 -.016 .209)" d="m62-199-10 83c19-5 36-8 51-8 19 0 34 4 46 10 12 7 21 16 29 27 6 9 15 31 27 66 2 5 4 12 8 21L16 519h95l108-301c14-38 26-78 37-120 10 40 22 80 36 118l111 303h88L294-8c-22-56-38-95-49-117-16-29-34-50-54-64-20-13-44-20-72-20-18 0-37 4-57 10"/></symbol><symbol id="J"><path transform="translate(-.079) scale(.001)" d="M79 0v716h317c64 0 112-7 145-20s60-36 80-68 30-68 30-107c0-52-17-95-50-129-33-35-84-57-152-66 25-12 44-24 57-36 28-26 54-57 79-95L709 0H590l-94 149c-28 42-51 75-69 98s-34 39-48 48-29 15-43 19c-11 2-29 4-53 4H173V0H79m94 400h204c43 0 77 4 101 13s43 23 56 43c12 20 19 41 19 65 0 33-13 61-37 83-25 22-64 33-116 33H173V400"/></symbol><symbol id="K"><path transform="matrix(.001 0 0 .001 -.036 .011)" d="M404 64c-33-28-64-48-94-59-30-10-63-16-97-16-57 0-101 13-131 41-31 28-46 63-46 107 0 25 5 48 17 69s27 38 46 51c18 12 39 22 63 29 17 4 43 8 78 13 71 8 123 18 157 30v23c0 36-8 61-24 76-23 20-57 30-101 30-42 0-72-8-92-22-20-15-34-41-43-77l-86 12c8 36 21 66 39 89 18 22 43 40 77 52s73 18 118 18c44 0 80-6 108-16s48-23 61-39 22-35 27-59c3-16 5-43 5-82V217c0-82 1-133 5-155s11-42 23-62h-92c-10 18-16 39-18 64m-7 196c-32-13-80-24-144-33-36-6-62-12-77-18s-26-16-34-28c-8-13-12-27-12-42 0-24 8-43 26-59s44-23 78-23 64 7 90 22 46 35 59 61c9 20 14 49 14 88v32"/></symbol><symbol id="L"><path transform="matrix(.001 0 0 .001 -.061 .209)" d="M234-209C185-148 144-77 111 4 77 86 61 171 61 259c0 77 12 151 37 223 29 82 74 164 136 246h63c-40-68-66-117-78-145-20-45-36-92-47-141-14-61-21-122-21-183 0-157 48-312 146-468h-63"/></symbol><symbol id="M"><path transform="translate(-.064) scale(.001)" d="M64 0v716h88V0H64"/></symbol><symbol id="N"><path transform="matrix(.001 0 0 .001 -.039 .011)" d="m404 190 87-11c-10-60-34-107-73-140-39-34-87-50-143-50-72 0-129 23-172 69S39 170 39 257c0 56 9 105 28 147 18 42 46 73 84 94s79 32 124 32c56 0 102-15 138-43s59-69 69-121l-85-13c-8 34-23 60-43 78-21 18-46 27-75 27-45 0-81-16-109-48s-41-82-41-150c0-70 13-121 40-152 26-32 61-47 105-47 34 0 63 10 86 31s38 54 44 98"/></symbol><symbol id="O"><path transform="matrix(.001 0 0 .001 0 .011)" d="m0-11 208 739h70L71-11H0"/></symbol><symbol id="P"><path transform="matrix(.001 0 0 .001 -.061 .209)" d="M124-209H61c97 156 146 311 146 468 0 61-7 122-21 182-12 48-27 95-47 141-13 28-39 77-78 146h63c60-82 105-164 135-246 25-72 38-146 38-223 0-88-17-173-51-255-34-81-74-152-122-213"/></symbol><use xlink:href="#G" transform="matrix(0 -16.32 -16.32 0 98.481 262.248)" fill="#333"/><use xlink:href="#r" transform="matrix(0 -16.32 -16.32 0 98.481 251.575)" fill="#333"/><use xlink:href="#H" transform="matrix(0 -16.32 -16.32 0 98.58 243.284)" fill="#333"/><use xlink:href="#x" transform="matrix(0 -16.32 -16.32 0 98.481 237.98)" fill="#333"/><use xlink:href="#I" transform="matrix(0 -16.32 -16.32 0 101.892 233.345)" fill="#333"/><use xlink:href="#s" transform="matrix(0 -16.32 -16.32 0 103.785 236.3)" fill="#333"/><use xlink:href="#J" transform="matrix(0 -16.32 -16.32 0 98.481 219.62)" fill="#333"/><use xlink:href="#K" transform="matrix(0 -16.32 -16.32 0 98.66 208.54)" fill="#333"/><use xlink:href="#H" transform="scale(16.32) rotate(-90 9.14 3.1)" fill="#333"/><use xlink:href="#n" transform="matrix(0 -16.32 -16.32 0 98.66 194.912)" fill="#333"/><use xlink:href="#s" transform="matrix(0 -16.32 -16.32 0 103.785 197.295)" fill="#333"/><use xlink:href="#L" transform="matrix(0 -16.32 -16.32 0 101.892 180.91)" fill="#333"/><use xlink:href="#o" transform="matrix(0 -16.32 -16.32 0 98.66 175.964)" fill="#333"/><use xlink:href="#n" transform="matrix(0 -16.32 -16.32 0 98.66 167.706)" fill="#333"/><use xlink:href="#M" transform="matrix(0 -16.32 -16.32 0 98.481 158.192)" fill="#333"/><use xlink:href="#n" transform="matrix(0 -16.32 -16.32 0 98.66 155.01)" fill="#333"/><use xlink:href="#N" transform="matrix(0 -16.32 -16.32 0 98.66 145.903)" fill="#333"/><use xlink:href="#H" transform="matrix(0 -16.32 -16.32 0 98.58 138.086)" fill="#333"/><use xlink:href="#p" transform="matrix(0 -16.32 -16.32 0 98.481 132.765)" fill="#333"/><use xlink:href="#q" transform="matrix(0 -16.32 -16.32 0 98.66 129.68)" fill="#333"/><use xlink:href="#r" transform="matrix(0 -16.32 -16.32 0 98.481 120.068)" fill="#333"/><use xlink:href="#o" transform="matrix(0 -16.32 -16.32 0 98.66 111.566)" fill="#333"/><use xlink:href="#O" transform="matrix(0 -16.32 -16.32 0 98.66 103.912)" fill="#333"/><use xlink:href="#v" transform="matrix(0 -16.32 -16.32 0 98.481 98.298)" fill="#333"/><use xlink:href="#p" transform="matrix(0 -16.32 -16.32 0 98.481 84.703)" fill="#333"/><use xlink:href="#r" transform="matrix(0 -16.32 -16.32 0 98.481 81.08)" fill="#333"/><use xlink:href="#P" transform="matrix(0 -16.32 -16.32 0 101.892 72.088)" fill="#333"/><clipPath id="Q"><path transform="matrix(1 0 0 -1 0 360)" d="M135 72h380.455v244.8H135z"/></clipPath><g clip-path="url(#Q)"><path d="m152.293 207.848 31.443 58.84 31.442-92.438 31.443 19.62 31.442-109.207 31.443 45.31 31.443-35.34 31.442 1.098 31.443-12.46 31.442 119.996 31.443-74.874 31.442-3.48V88.74L466.72 62.555l-31.443 16.74-31.442-24.968-31.443 5.4-31.442 9.104-31.443 58.103-31.443-69.24-31.442 27.16-31.443 40.981-31.442 41.7-31.443-71.604z" fill="#6495ed" fill-opacity=".2"/><path stroke-width=".8" stroke-linejoin="round" fill="none" stroke="#fff" stroke-opacity=".2" d="m152.293 207.848 31.443 58.84 31.442-92.438 31.443 19.62 31.442-109.207 31.443 45.31 31.443-35.34 31.442 1.098 31.443-12.46 31.442 119.996 31.443-74.874 31.442-3.48V88.74L466.72 62.555l-31.443 16.74-31.442-24.968-31.443 5.4-31.442 9.104-31.443 58.103-31.443-69.24-31.442 27.16-31.443 40.981-31.442 41.7-31.443-71.604z"/></g><clipPath id="R"><path transform="matrix(1 0 0 -1 0 360)" d="M135 72h380.455v244.8H135z"/></clipPath><g clip-path="url(#R)"><path d="m403.834 245.078 31.442.11 31.443 12.495 31.442 19.19V212.53l-31.442 2.789-31.443 27.528-31.442-21.997z" fill="orange" fill-opacity=".2"/><path stroke-width=".8" stroke-linejoin="round" fill="none" stroke="#fff" stroke-opacity=".2" d="m403.834 245.078 31.442.11 31.443 12.495 31.442 19.19V212.53l-31.442 2.789-31.443 27.528-31.442-21.997z"/></g><clipPath id="S"><path transform="matrix(1 0 0 -1 0 360)" d="M135 72h380.455v244.8H135z"/></clipPath><g clip-path="url(#S)"><path stroke-width="3" stroke-linecap="round" stroke-linejoin="round" fill="none" stroke="#1f77b4" d="m152.293 142.03 31.443 94.351 31.442-99.949 31.443-15.906 31.442-39.465 31.443 47.43 31.443-46.268 31.442-16.638 31.443 8.116 31.442 58.878 31.443-31.637 31.442 14.584"/></g><clipPath id="T"><path transform="matrix(1 0 0 -1 0 360)" d="M135 72h380.455v244.8H135z"/></clipPath><g clip-path="url(#T)"><path stroke-width="3" stroke-dasharray="12,4.5" stroke-linejoin="round" fill="none" stroke="#ff7f0e" d="m403.834 237.966 31.442 6.347 31.443-15.156 31.442 22.885"/></g><clipPath id="U"><path transform="matrix(1 0 0 -1 0 360)" d="M135 72h380.455v244.8H135z"/></clipPath><g clip-path="url(#U)"><path stroke-width="1.2" stroke-linecap="round" stroke-linejoin="round" fill="none" stroke="#000" d="M435.276 288V43.2"/></g><path stroke-linecap="square" stroke-miterlimit="10" fill="none" stroke="#d5d6d5" d="M135 288V43.2M515.455 288V43.2M135 288h380.455M135 43.2h380.455"/><path d="M145.472 120.061h96.06c1.994 0 2.992-.997 2.992-2.992V53.672c0-1.995-.998-2.992-2.993-2.992h-96.059c-1.995 0-2.992.997-2.992 2.992v63.397c0 1.995.997 2.992 2.992 2.992z" fill="#fff" fill-opacity=".8"/><path stroke-width=".8" stroke-miterlimit="10" fill="none" stroke="#d5d6d5" stroke-opacity=".8" d="M145.472 120.061h96.06c1.994 0 2.992-.997 2.992-2.992V53.672c0-1.995-.998-2.992-2.993-2.992h-96.059c-1.995 0-2.992.997-2.992 2.992v63.397c0 1.995.997 2.992 2.992 2.992z"/><symbol id="V"><path transform="translate(-.073) scale(.001)" d="M73 0v716h95V361l355 355h129L352 426 665 0H540L285 362 168 248V0H73"/></symbol><symbol id="W"><path transform="matrix(.001 0 0 .001 -.034 .011)" d="M402 0v65c-33-51-81-76-145-76-42 0-80 11-114 34-35 22-62 54-81 95-19 40-28 87-28 141 0 51 8 98 26 140 17 42 43 75 77 97s73 34 116 34c31 0 59-7 84-20 24-13 44-30 59-51v257h88V0h-82M125 259c0-67 13-117 41-149 28-33 61-49 100-49 38 0 70 15 97 47 27 31 41 79 41 143 0 71-14 123-41 157-28 33-61 50-101 50s-72-16-98-48-39-83-39-151"/></symbol><use xlink:href="#V" transform="matrix(16.32 0 0 -16.32 159.763 68.336)" fill="#333"/><use xlink:href="#n" transform="matrix(16.32 0 0 -16.32 170.061 68.515)" fill="#333"/><use xlink:href="#I" transform="matrix(16.32 0 0 -16.32 178.793 71.747)" fill="#333"/><use xlink:href="#w" transform="matrix(16.32 0 0 -16.32 187.752 68.515)" fill="#333"/><use xlink:href="#q" transform="matrix(16.32 0 0 -16.32 196.304 68.515)" fill="#333"/><use xlink:href="#K" transform="matrix(16.32 0 0 -16.32 205.427 68.515)" fill="#333"/><use xlink:href="#x" transform="matrix(16.32 0 0 -16.32 214.974 68.336)" fill="#333"/><use xlink:href="#W" transform="matrix(16.32 0 0 -16.32 219.903 68.515)" fill="#333"/><path stroke-width="3" stroke-linecap="round" stroke-linejoin="round" fill="none" stroke="#1f77b4" d="M148.464 84.72h29.92"/><use xlink:href="#t" transform="matrix(14.96 0 0 -14.96 191.489 89.957)" fill="#333"/><use xlink:href="#q" transform="matrix(14.96 0 0 -14.96 201.647 90.121)" fill="#333"/><use xlink:href="#v" transform="matrix(14.96 0 0 -14.96 210.458 89.957)" fill="#333"/><use xlink:href="#q" transform="matrix(14.96 0 0 -14.96 222.426 90.121)" fill="#333"/><use xlink:href="#r" transform="matrix(14.96 0 0 -14.96 231.238 89.957)" fill="#333"/><path stroke-width="3" stroke-dasharray="12,4.5" stroke-linejoin="round" fill="none" stroke="#ff7f0e" d="M148.464 105.872h29.92"/><symbol id="X"><path transform="matrix(.001 0 0 .001 -.05 .011)" d="m588 251 95-24c-20-78-56-138-108-178S460-11 386-11c-77 0-140 15-188 46-49 31-86 76-111 136S50 295 50 363c0 74 14 139 42 195s69 98 122 127c52 28 110 43 174 43 71 0 131-19 180-55s83-87 102-153l-93-22c-17 52-41 89-72 113-32 24-71 36-119 36-56 0-102-14-139-40s-63-62-78-106-22-90-22-137c0-62 9-115 27-160 18-46 45-80 83-102 37-22 77-33 121-33 53 0 98 15 135 46 36 30 61 76 75 136"/></symbol><use xlink:href="#J" transform="matrix(14.96 0 0 -14.96 191.534 111.108)" fill="#333"/><use xlink:href="#X" transform="matrix(14.96 0 0 -14.96 201.901 111.273)" fill="#333"/><use xlink:href="#m" transform="matrix(14.96 0 0 -14.96 212.627 111.273)" fill="#333"/><path d="M591.545 288H972V43.2H591.545z" fill="#fff"/><clipPath id="Y"><path transform="matrix(1 0 0 -1 0 360)" d="M591.545 72H972v244.8H591.545z"/></clipPath><g clip-path="url(#Y)"><path stroke-width=".8" stroke-linecap="round" stroke-linejoin="round" fill="none" stroke="#d5d6d5" d="M640.281 288V43.2"/></g><use xlink:href="#b" transform="matrix(14.96 0 0 -14.96 636.559 307.003)" fill="#333"/><clipPath id="Z"><path transform="matrix(1 0 0 -1 0 360)" d="M591.545 72H972v244.8H591.545z"/></clipPath><g clip-path="url(#Z)"><path stroke-width=".8" stroke-linecap="round" stroke-linejoin="round" fill="none" stroke="#d5d6d5" d="M703.166 288V43.2"/></g><use xlink:href="#d" transform="matrix(14.96 0 0 -14.96 699.205 307.003)" fill="#333"/><clipPath id="aa"><path transform="matrix(1 0 0 -1 0 360)" d="M591.545 72H972v244.8H591.545z"/></clipPath><g clip-path="url(#aa)"><path stroke-width=".8" stroke-linecap="round" stroke-linejoin="round" fill="none" stroke="#d5d6d5" d="M766.051 288V43.2"/></g><use xlink:href="#f" transform="matrix(14.96 0 0 -14.96 762.464 307.168)" fill="#333"/><clipPath id="ab"><path transform="matrix(1 0 0 -1 0 360)" d="M591.545 72H972v244.8H591.545z"/></clipPath><g clip-path="url(#ab)"><path stroke-width=".8" stroke-linecap="round" stroke-linejoin="round" fill="none" stroke="#d5d6d5" d="M828.937 288V43.2"/></g><use xlink:href="#h" transform="matrix(14.96 0 0 -14.96 825.394 307.168)" fill="#333"/><clipPath id="ac"><path transform="matrix(1 0 0 -1 0 360)" d="M591.545 72H972v244.8H591.545z"/></clipPath><g clip-path="url(#ac)"><path stroke-width=".8" stroke-linecap="round" stroke-linejoin="round" fill="none" stroke="#d5d6d5" d="M891.822 288V43.2"/></g><use xlink:href="#j" transform="matrix(14.96 0 0 -14.96 885.14 307.003)" fill="#333"/><use xlink:href="#k" transform="matrix(14.96 0 0 -14.96 892.455 307.168)" fill="#333"/><clipPath id="ad"><path transform="matrix(1 0 0 -1 0 360)" d="M591.545 72H972v244.8H591.545z"/></clipPath><g clip-path="url(#ad)"><path stroke-width=".8" stroke-linecap="round" stroke-linejoin="round" fill="none" stroke="#d5d6d5" d="M954.707 288V43.2"/></g><use xlink:href="#j" transform="matrix(14.96 0 0 -14.96 948.025 307.003)" fill="#333"/><use xlink:href="#b" transform="matrix(14.96 0 0 -14.96 955.146 307.003)" fill="#333"/><use xlink:href="#m" transform="matrix(16.32 0 0 -16.32 722.195 325.823)" fill="#333"/><use xlink:href="#n" transform="matrix(16.32 0 0 -16.32 732.95 325.823)" fill="#333"/><use xlink:href="#o" transform="matrix(16.32 0 0 -16.32 741.926 325.823)" fill="#333"/><use xlink:href="#o" transform="matrix(16.32 0 0 -16.32 750.085 325.823)" fill="#333"/><use xlink:href="#p" transform="matrix(16.32 0 0 -16.32 758.817 325.644)" fill="#333"/><use xlink:href="#q" transform="matrix(16.32 0 0 -16.32 761.901 325.823)" fill="#333"/><use xlink:href="#r" transform="matrix(16.32 0 0 -16.32 771.514 325.644)" fill="#333"/><use xlink:href="#s" transform="matrix(16.32 0 0 -16.32 768.658 330.948)" fill="#333"/><use xlink:href="#t" transform="matrix(16.32 0 0 -16.32 785.288 325.644)" fill="#333"/><use xlink:href="#u" transform="matrix(16.32 0 0 -16.32 796.875 325.823)" fill="#333"/><use xlink:href="#v" transform="matrix(16.32 0 0 -16.32 805.981 325.644)" fill="#333"/><use xlink:href="#w" transform="matrix(16.32 0 0 -16.32 819.56 325.823)" fill="#333"/><use xlink:href="#n" transform="matrix(16.32 0 0 -16.32 828.177 325.823)" fill="#333"/><use xlink:href="#x" transform="matrix(16.32 0 0 -16.32 837.707 325.644)" fill="#333"/><clipPath id="ae"><path transform="matrix(1 0 0 -1 0 360)" d="M591.545 72H972v244.8H591.545z"/></clipPath><g clip-path="url(#ae)"><path stroke-width=".8" stroke-linecap="round" stroke-linejoin="round" fill="none" stroke="#d5d6d5" d="M591.545 267.727H972"/></g><use xlink:href="#C" transform="matrix(14.96 0 0 -14.96 575.561 273.258)" fill="#333"/><clipPath id="af"><path transform="matrix(1 0 0 -1 0 360)" d="M591.545 72H972v244.8H591.545z"/></clipPath><g clip-path="url(#af)"><path stroke-width=".8" stroke-linecap="round" stroke-linejoin="round" fill="none" stroke="#d5d6d5" d="M591.545 232.16H972"/></g><use xlink:href="#d" transform="matrix(14.96 0 0 -14.96 575.127 237.512)" fill="#333"/><clipPath id="ag"><path transform="matrix(1 0 0 -1 0 360)" d="M591.545 72H972v244.8H591.545z"/></clipPath><g clip-path="url(#ag)"><path stroke-width=".8" stroke-linecap="round" stroke-linejoin="round" fill="none" stroke="#d5d6d5" d="M591.545 196.594H972"/></g><use xlink:href="#A" transform="matrix(14.96 0 0 -14.96 575.561 202.11)" fill="#333"/><clipPath id="ah"><path transform="matrix(1 0 0 -1 0 360)" d="M591.545 72H972v244.8H591.545z"/></clipPath><g clip-path="url(#ah)"><path stroke-width=".8" stroke-linecap="round" stroke-linejoin="round" fill="none" stroke="#d5d6d5" d="M591.545 161.027H972"/></g><use xlink:href="#f" transform="matrix(14.96 0 0 -14.96 575.501 166.543)" fill="#333"/><clipPath id="ai"><path transform="matrix(1 0 0 -1 0 360)" d="M591.545 72H972v244.8H591.545z"/></clipPath><g clip-path="url(#ai)"><path stroke-width=".8" stroke-linecap="round" stroke-linejoin="round" fill="none" stroke="#d5d6d5" d="M591.545 125.46H972"/></g><symbol id="aj"><path transform="translate(-.047) scale(.001)" d="M47 622v85h464v-69c-46-49-92-114-136-194-45-80-80-163-104-247-18-60-29-126-33-197h-91c1 56 12 124 33 204s51 157 91 231 82 136 127 187H47"/></symbol><use xlink:href="#aj" transform="matrix(14.96 0 0 -14.96 575.636 130.812)" fill="#333"/><clipPath id="ak"><path transform="matrix(1 0 0 -1 0 360)" d="M591.545 72H972v244.8H591.545z"/></clipPath><g clip-path="url(#ak)"><path stroke-width=".8" stroke-linecap="round" stroke-linejoin="round" fill="none" stroke="#d5d6d5" d="M591.545 89.894H972"/></g><use xlink:href="#h" transform="matrix(14.96 0 0 -14.96 575.546 95.41)" fill="#333"/><clipPath id="al"><path transform="matrix(1 0 0 -1 0 360)" d="M591.545 72H972v244.8H591.545z"/></clipPath><g clip-path="url(#al)"><path stroke-width=".8" stroke-linecap="round" stroke-linejoin="round" fill="none" stroke="#d5d6d5" d="M591.545 54.327H972"/></g><symbol id="am"><path transform="matrix(.001 0 0 .001 -.042 .011)" d="m55 166 84 7c7-40 21-68 41-86s46-27 78-27c26 0 50 6 70 18s37 29 50 50c13 20 24 48 33 84 9 35 14 71 14 107 0 4-1 10-1 18-18-28-42-51-72-68-30-18-63-26-99-26-59 0-109 21-150 64S42 407 42 477c0 72 21 131 64 175 42 44 96 67 161 67 46 0 88-13 127-38 38-25 68-61 88-107 20-47 30-114 30-201 0-92-10-165-30-219s-49-95-88-123c-40-28-86-42-138-42-56 0-102 15-138 46-36 30-57 74-63 131m360 315c0 50-14 90-41 120s-59 45-97 45c-39 0-73-16-102-48s-43-74-43-124c0-46 13-83 41-111 27-29 61-43 102-43 40 0 74 14 100 43 26 28 40 68 40 118"/></symbol><use xlink:href="#am" transform="matrix(14.96 0 0 -14.96 575.561 59.843)" fill="#333"/><symbol id="an"><path transform="translate(-.066) scale(.001)" d="M66 0v716h88V308l208 211h114L278 326 496 0H388L216 265l-62-59V0H66"/></symbol><symbol id="ao"><path transform="translate(-.073) scale(.001)" d="M73 0v716h95V84h353V0H73"/></symbol><use xlink:href="#X" transform="matrix(0 -16.32 -16.32 0 567.675 264.987)" fill="#333"/><use xlink:href="#M" transform="matrix(0 -16.32 -16.32 0 567.495 252.976)" fill="#333"/><use xlink:href="#p" transform="matrix(0 -16.32 -16.32 0 567.495 249.32)" fill="#333"/><use xlink:href="#N" transform="matrix(0 -16.32 -16.32 0 567.675 246.138)" fill="#333"/><use xlink:href="#an" transform="matrix(0 -16.32 -16.32 0 567.495 237.537)" fill="#333"/><use xlink:href="#s" transform="matrix(0 -16.32 -16.32 0 572.8 241.307)" fill="#333"/><use xlink:href="#ao" transform="matrix(0 -16.32 -16.32 0 567.495 224.726)" fill="#333"/><use xlink:href="#q" transform="matrix(0 -16.32 -16.32 0 567.675 216.305)" fill="#333"/><use xlink:href="#K" transform="matrix(0 -16.32 -16.32 0 567.675 207.182)" fill="#333"/><use xlink:href="#W" transform="matrix(0 -16.32 -16.32 0 567.675 198.14)" fill="#333"/><use xlink:href="#s" transform="matrix(0 -16.32 -16.32 0 572.8 200.474)" fill="#333"/><use xlink:href="#L" transform="matrix(0 -16.32 -16.32 0 570.906 184.089)" fill="#333"/><use xlink:href="#N" transform="matrix(0 -16.32 -16.32 0 567.675 179.013)" fill="#333"/><use xlink:href="#M" transform="matrix(0 -16.32 -16.32 0 567.495 170.445)" fill="#333"/><use xlink:href="#p" transform="matrix(0 -16.32 -16.32 0 567.495 166.79)" fill="#333"/><use xlink:href="#N" transform="matrix(0 -16.32 -16.32 0 567.675 163.607)" fill="#333"/><use xlink:href="#an" transform="matrix(0 -16.32 -16.32 0 567.495 155.007)" fill="#333"/><use xlink:href="#o" transform="matrix(0 -16.32 -16.32 0 567.675 147.418)" fill="#333"/><use xlink:href="#O" transform="matrix(0 -16.32 -16.32 0 567.675 139.764)" fill="#333"/><use xlink:href="#o" transform="matrix(0 -16.32 -16.32 0 567.675 134.72)" fill="#333"/><use xlink:href="#n" transform="matrix(0 -16.32 -16.32 0 567.675 126.463)" fill="#333"/><use xlink:href="#M" transform="matrix(0 -16.32 -16.32 0 567.495 116.948)" fill="#333"/><use xlink:href="#n" transform="matrix(0 -16.32 -16.32 0 567.675 113.766)" fill="#333"/><use xlink:href="#N" transform="matrix(0 -16.32 -16.32 0 567.675 104.66)" fill="#333"/><use xlink:href="#H" transform="matrix(0 -16.32 -16.32 0 567.593 96.842)" fill="#333"/><use xlink:href="#p" transform="matrix(0 -16.32 -16.32 0 567.495 91.522)" fill="#333"/><use xlink:href="#q" transform="matrix(0 -16.32 -16.32 0 567.675 88.437)" fill="#333"/><use xlink:href="#r" transform="matrix(0 -16.32 -16.32 0 567.495 78.825)" fill="#333"/><use xlink:href="#P" transform="matrix(0 -16.32 -16.32 0 570.906 69.833)" fill="#333"/><clipPath id="ap"><path transform="matrix(1 0 0 -1 0 360)" d="M591.545 72H972v244.8H591.545z"/></clipPath><g clip-path="url(#ap)"><path d="m608.839 221.49 31.442-99.586 31.443 48.015 31.442 19.561 31.443 21.34 31.442-1.778 31.443-1.778 31.442 21.34 31.443-14.227 31.443-21.34 31.442 14.227 31.443-10.67v-23.5l-31.443 16.386-31.442-51.571-31.443 40.309-31.442 43.272-31.443-43.696-31.443 14.354-31.442-2.668-31.443-49.793-31.442-3.556-31.443-81.804-31.442 100.18z" fill="#6495ed" fill-opacity=".2"/><path stroke-width=".8" stroke-linejoin="round" fill="none" stroke="#fff" stroke-opacity=".2" d="m608.839 221.49 31.442-99.586 31.443 48.015 31.442 19.561 31.443 21.34 31.442-1.778 31.443-1.778 31.442 21.34 31.443-14.227 31.443-21.34 31.442 14.227 31.443-10.67v-23.5l-31.443 16.386-31.442-51.571-31.443 40.309-31.442 43.272-31.443-43.696-31.443 14.354-31.442-2.668-31.443-49.793-31.442-3.556-31.443-81.804-31.442 100.18z"/></g><clipPath id="aq"><path transform="matrix(1 0 0 -1 0 360)" d="M591.545 72H972v244.8H591.545z"/></clipPath><g clip-path="url(#aq)"><path d="M860.379 274.84H923.264l31.443 2.033v-2.033l-31.443-14.226-31.442 14.226h-31.443z" fill="orange" fill-opacity=".2"/><path stroke-width=".8" stroke-linejoin="round" fill="none" stroke="#fff" stroke-opacity=".2" d="M860.379 274.84H923.264l31.443 2.033v-2.033l-31.443-14.226-31.442 14.226h-31.443z"/></g><clipPath id="ar"><path transform="matrix(1 0 0 -1 0 360)" d="M591.545 72H972v244.8H591.545z"/></clipPath><g clip-path="url(#ar)"><path stroke-width="3" stroke-linecap="round" stroke-linejoin="round" fill="none" stroke="#1f77b4" d="M608.839 193.037 640.28 81.002l31.443 69.355 31.442 35.567 31.443 17.783 31.442-3.557 31.443-10.67 31.442 35.567 31.443-14.227 31.443-32.01 31.442 24.897 31.443-16.005"/></g><clipPath id="as"><path transform="matrix(1 0 0 -1 0 360)" d="M591.545 72H972v244.8H591.545z"/></clipPath><g clip-path="url(#as)"><path stroke-width="3" stroke-dasharray="12,4.5" stroke-linejoin="round" fill="none" stroke="#ff7f0e" d="M860.379 274.84h94.328"/></g><clipPath id="at"><path transform="matrix(1 0 0 -1 0 360)" d="M591.545 72H972v244.8H591.545z"/></clipPath><g clip-path="url(#at)"><path stroke-width="1.2" stroke-linecap="round" stroke-linejoin="round" fill="none" stroke="#000" d="M891.822 288V43.2"/></g><path stroke-linecap="square" stroke-miterlimit="10" fill="none" stroke="#d5d6d5" d="M591.545 288V43.2M972 288V43.2M591.545 288H972M591.545 43.2H972"/></svg>