<svg xmlns="http://www.w3.org/2000/svg" xmlns:xlink="http://www.w3.org/1999/xlink" width="576" height="768" viewBox="0 0 432 576"><path d="M0 576h432V0H0z" fill="#fff"/><path d="M64.8 256.887h138.362V23.126H64.8z" fill="#fff"/><symbol id="a"><path transform="translate(-.076) scale(.001)" d="M76 0v716h97l376-562v562h91V0h-97L167 563V0H76"/></symbol><symbol id="b"><path transform="matrix(.001 0 0 .001 -.033 .011)" d="M33 259c0 96 26 167 80 214 44 38 99 57 163 57 71 0 129-24 175-70 45-47 68-111 68-193 0-67-10-120-30-158s-50-68-88-89c-38-20-80-31-125-31-73 0-132 23-176 69-45 46-67 113-67 201m91 0c0-66 14-116 43-149 28-33 65-49 109-49s80 16 109 49 44 84 44 152c0 64-15 112-44 146-30 33-66 50-109 50-44 0-81-17-109-50-29-33-43-83-43-149"/></symbol><symbol id="c"><path transform="translate(-.066) scale(.001)" d="M66 0v519h79v-73c16 25 37 45 64 61 27 15 58 23 93 23 38 0 69-8 94-24 24-16 42-39 52-67 41 60 94 91 160 91 52 0 91-15 119-43s42-72 42-131V0h-88v327c0 34-3 59-9 75s-16 28-31 38c-15 9-32 14-52 14-37 0-67-13-91-37s-36-63-36-116V0h-88v337c0 39-8 68-22 88-14 19-38 29-70 29-25 0-48-7-69-20s-36-32-45-57c-10-25-14-61-14-108V0H66"/></symbol><symbol id="d"><path transform="translate(-.066) scale(.001)" d="M66 0v519h79v-74c38 56 93 85 165 85 31 0 60-6 86-17s46-26 59-44 22-40 27-65c3-16 5-45 5-85V0h-88v315c0 36-4 62-10 80-7 18-19 32-36 43-18 10-38 16-61 16-38 0-71-12-98-36s-40-69-40-135V0H66"/></symbol><use xlink:href="#a" transform="matrix(14.96 0 0 -14.96 76.434 275.89)" fill="#333"/><use xlink:href="#b" transform="matrix(14.96 0 0 -14.96 86.592 276.055)" fill="#333"/><use xlink:href="#c" transform="matrix(14.96 0 0 -14.96 95.403 275.89)" fill="#333"/><use xlink:href="#b" transform="matrix(14.96 0 0 -14.96 107.371 276.055)" fill="#333"/><use xlink:href="#d" transform="matrix(14.96 0 0 -14.96 116.183 275.89)" fill="#333"/><symbol id="e"><path transform="translate(-.079) scale(.001)" d="M79 0v716h317c64 0 112-7 145-20s60-36 80-68 30-68 30-107c0-52-17-95-50-129-33-35-84-57-152-66 25-12 44-24 57-36 28-26 54-57 79-95L709 0H590l-94 149c-28 42-51 75-69 98s-34 39-48 48-29 15-43 19c-11 2-29 4-53 4H173V0H79m94 400h204c43 0 77 4 101 13s43 23 56 43c12 20 19 41 19 65 0 33-13 61-37 83-25 22-64 33-116 33H173V400"/></symbol><symbol id="f"><path transform="matrix(.001 0 0 .001 -.05 .011)" d="m588 251 95-24c-20-78-56-138-108-178S460-11 386-11c-77 0-140 15-188 46-49 31-86 76-111 136S50 295 50 363c0 74 14 139 42 195s69 98 122 127c52 28 110 43 174 43 71 0 131-19 180-55s83-87 102-153l-93-22c-17 52-41 89-72 113-32 24-71 36-119 36-56 0-102-14-139-40s-63-62-78-106-22-90-22-137c0-62 9-115 27-160 18-46 45-80 83-102 37-22 77-33 121-33 53 0 98 15 135 46 36 30 61 76 75 136"/></symbol><symbol id="g"><path transform="matrix(.001 0 0 .001 -.045 .011)" d="m45 230 89 8c4-36 14-66 30-89 15-23 39-41 72-55 32-14 69-21 110-21 36 0 67 5 95 16 28 10 48 25 62 44 13 18 20 39 20 61s-7 42-20 59c-13 16-34 30-64 42-19 8-61 19-127 35s-112 31-138 45c-34 18-60 40-77 66s-25 56-25 90c0 36 10 69 31 101 20 31 50 55 90 71 39 16 83 25 131 25 53 0 100-9 140-26s72-42 94-75c22-34 33-71 35-113l-91-7c-5 45-21 79-49 103-28 23-70 35-125 35-58 0-99-11-125-32s-39-46-39-76c0-26 9-47 27-63 18-17 66-34 143-52s130-33 159-45c41-20 72-44 92-73 20-30 30-64 30-102s-11-74-33-108-54-60-94-78c-41-18-87-27-138-27-65 0-119 9-163 27s-78 47-103 85-38 81-39 129"/></symbol><use xlink:href="#e" transform="matrix(14.96 0 0 -14.96 153.972 275.89)" fill="#333"/><use xlink:href="#f" transform="matrix(14.96 0 0 -14.96 164.34 276.055)" fill="#333"/><use xlink:href="#g" transform="matrix(14.96 0 0 -14.96 175.066 276.055)" fill="#333"/><symbol id="h"><path transform="translate(-.073) scale(.001)" d="M73 0v716h95V361l355 355h129L352 426 665 0H540L285 362 168 248V0H73"/></symbol><symbol id="i"><path transform="matrix(.001 0 0 .001 -.037 .011)" d="m421 167 91-11c-15-54-42-95-80-124-39-29-88-43-148-43-76 0-137 23-181 69S37 170 37 255c0 87 22 155 67 203 44 48 103 72 175 72 69 0 126-24 170-71s66-113 66-199c0-6-1-13-1-23H127c3-58 19-101 48-131s65-45 109-45c32 0 60 8 83 25 22 16 40 43 54 81M132 309h290c-4 44-15 76-33 98-28 34-65 51-109 51-41 0-75-14-102-41-28-27-43-63-46-108"/></symbol><symbol id="j"><path transform="matrix(.001 0 0 .001 -.016 .209)" d="m62-199-10 83c19-5 36-8 51-8 19 0 34 4 46 10 12 7 21 16 29 27 6 9 15 31 27 66 2 5 4 12 8 21L16 519h95l108-301c14-38 26-78 37-120 10 40 22 80 36 118l111 303h88L294-8c-22-56-38-95-49-117-16-29-34-50-54-64-20-13-44-20-72-20-18 0-37 4-57 10"/></symbol><symbol id="k"><path transform="matrix(.001 0 0 .001 -.065 .011)" d="M147 0H65v716h88V460c37 46 84 70 142 70 32 0 62-7 91-19 28-13 52-31 70-54 18-24 33-52 43-85s16-68 16-105c0-89-22-158-66-206s-97-72-158-72c-62 0-110 25-144 76V0m-1 263c0-62 8-107 25-135 28-45 65-67 113-67 38 0 71 16 99 50 28 33 42 83 42 149 0 67-14 117-40 149-27 32-59 49-97 49-39 0-72-17-100-50-28-34-42-82-42-145"/></symbol><symbol id="l"><path transform="matrix(.001 0 0 .001 -.036 .011)" d="M404 64c-33-28-64-48-94-59-30-10-63-16-97-16-57 0-101 13-131 41-31 28-46 63-46 107 0 25 5 48 17 69s27 38 46 51c18 12 39 22 63 29 17 4 43 8 78 13 71 8 123 18 157 30v23c0 36-8 61-24 76-23 20-57 30-101 30-42 0-72-8-92-22-20-15-34-41-43-77l-86 12c8 36 21 66 39 89 18 22 43 40 77 52s73 18 118 18c44 0 80-6 108-16s48-23 61-39 22-35 27-59c3-16 5-43 5-82V217c0-82 1-133 5-155s11-42 23-62h-92c-10 18-16 39-18 64m-7 196c-32-13-80-24-144-33-36-6-62-12-77-18s-26-16-34-28c-8-13-12-27-12-42 0-24 8-43 26-59s44-23 78-23 64 7 90 22 46 35 59 61c9 20 14 49 14 88v32"/></symbol><symbol id="m"><path transform="translate(-.065) scale(.001)" d="M65 0v519h79v-79c20 36 38 60 56 72 17 12 36 18 56 18 30 0 60-10 91-28l-31-82c-22 12-43 19-64 19-20 0-37-6-52-17-16-12-27-28-33-48-10-32-14-66-14-103V0H65"/></symbol><symbol id="n"><path transform="matrix(.001 0 0 .001 -.034 .011)" d="M402 0v65c-33-51-81-76-145-76-42 0-80 11-114 34-35 22-62 54-81 95-19 40-28 87-28 141 0 51 8 98 26 140 17 42 43 75 77 97s73 34 116 34c31 0 59-7 84-20 24-13 44-30 59-51v257h88V0h-82M125 259c0-67 13-117 41-149 28-33 61-49 100-49 38 0 70 15 97 47 27 31 41 79 41 143 0 71-14 123-41 157-28 33-61 50-101 50s-72-16-98-48-39-83-39-151"/></symbol><use xlink:href="#h" transform="matrix(16.32 0 0 -16.32 100.243 294.531)" fill="#333"/><use xlink:href="#i" transform="matrix(16.32 0 0 -16.32 110.54 294.71)" fill="#333"/><use xlink:href="#j" transform="matrix(16.32 0 0 -16.32 119.272 297.942)" fill="#333"/><use xlink:href="#k" transform="matrix(16.32 0 0 -16.32 128.232 294.71)" fill="#333"/><use xlink:href="#b" transform="matrix(16.32 0 0 -16.32 136.783 294.71)" fill="#333"/><use xlink:href="#l" transform="matrix(16.32 0 0 -16.32 145.906 294.71)" fill="#333"/><use xlink:href="#m" transform="matrix(16.32 0 0 -16.32 155.453 294.531)" fill="#333"/><use xlink:href="#n" transform="matrix(16.32 0 0 -16.32 160.382 294.71)" fill="#333"/><clipPath id="o"><path transform="matrix(1 0 0 -1 0 576)" d="M64.8 319.113h138.362v233.761H64.8z"/></clipPath><g clip-path="url(#o)"><path stroke-width=".8" stroke-linecap="round" stroke-linejoin="round" fill="none" stroke="#d5d6d5" d="M64.8 236.673h138.362"/></g><symbol id="p"><path transform="translate(-.109) scale(.001)" d="M373 0h-88v560c-22-20-50-41-84-61s-65-35-92-45v85c49 23 92 51 129 84 36 32 62 64 78 96h57V0"/></symbol><symbol id="q"><path transform="translate(-.091) scale(.001)" d="M91 0v100h100V0H91"/></symbol><symbol id="r"><path transform="translate(-.013) scale(.001)" d="M323 0v171H13v81l326 464h72V252h97v-81h-97V0h-88m0 252v323L99 252h224"/></symbol><use xlink:href="#p" transform="matrix(14.96 0 0 -14.96 37.35 242.025)" fill="#333"/><use xlink:href="#q" transform="matrix(14.96 0 0 -14.96 45.398 242.025)" fill="#333"/><use xlink:href="#r" transform="matrix(14.96 0 0 -14.96 48.39 242.025)" fill="#333"/><clipPath id="s"><path transform="matrix(1 0 0 -1 0 576)" d="M64.8 319.113h138.362v233.761H64.8z"/></clipPath><g clip-path="url(#s)"><path stroke-width=".8" stroke-linecap="round" stroke-linejoin="round" fill="none" stroke="#d5d6d5" d="M64.8 193.136h138.362"/></g><symbol id="t"><path transform="matrix(.001 0 0 .001 -.042 .011)" d="m42 188 92 7c6-45 22-79 47-101 25-23 55-34 90-34 42 0 78 16 108 48 29 32 44 74 44 127 0 50-15 89-43 118s-65 44-110 44c-28 0-54-7-77-20s-41-29-53-49l-83 10 69 368h356v-84H197l-39-192c43 30 88 45 135 45 62 0 115-22 158-65 43-44 65-99 65-167 0-65-19-121-57-168-46-58-108-86-188-86-65 0-118 18-159 54-42 36-65 84-70 145"/></symbol><use xlink:href="#p" transform="matrix(14.96 0 0 -14.96 37.35 198.487)" fill="#333"/><use xlink:href="#q" transform="matrix(14.96 0 0 -14.96 45.398 198.487)" fill="#333"/><use xlink:href="#t" transform="matrix(14.96 0 0 -14.96 48.824 198.652)" fill="#333"/><clipPath id="u"><path transform="matrix(1 0 0 -1 0 576)" d="M64.8 319.113h138.362v233.761H64.8z"/></clipPath><g clip-path="url(#u)"><path stroke-width=".8" stroke-linecap="round" stroke-linejoin="round" fill="none" stroke="#d5d6d5" d="M64.8 149.598h138.362"/></g><symbol id="v"><path transform="matrix(.001 0 0 .001 -.038 .011)" d="m498 541-88-7c-8 34-19 59-33 75-24 24-54 37-88 37-28 0-53-8-74-23-28-20-49-50-65-88-16-39-25-94-25-166 21 32 47 55 78 71 30 16 62 24 96 24 58 0 108-22 149-65s62-99 62-167c0-45-10-87-29-125-20-39-46-68-80-88s-72-30-115-30c-74 0-133 26-179 80-46 53-69 142-69 266 0 138 25 238 76 302 44 54 104 82 180 82 56 0 103-16 139-48s57-75 65-130M139 232c0-30 6-59 19-87 12-28 30-49 54-63 23-15 47-22 73-22 36 0 68 15 95 45 26 30 40 70 40 122 0 49-14 88-40 117-26 28-59 43-99 43s-73-15-101-43c-28-29-41-66-41-112"/></symbol><use xlink:href="#p" transform="matrix(14.96 0 0 -14.96 37.35 154.95)" fill="#333"/><use xlink:href="#q" transform="matrix(14.96 0 0 -14.96 45.398 154.95)" fill="#333"/><use xlink:href="#v" transform="matrix(14.96 0 0 -14.96 48.764 155.114)" fill="#333"/><clipPath id="w"><path transform="matrix(1 0 0 -1 0 576)" d="M64.8 319.113h138.362v233.761H64.8z"/></clipPath><g clip-path="url(#w)"><path stroke-width=".8" stroke-linecap="round" stroke-linejoin="round" fill="none" stroke="#d5d6d5" d="M64.8 106.06h138.362"/></g><symbol id="x"><path transform="translate(-.047) scale(.001)" d="M47 622v85h464v-69c-46-49-92-114-136-194-45-80-80-163-104-247-18-60-29-126-33-197h-91c1 56 12 124 33 204s51 157 91 231 82 136 127 187H47"/></symbol><use xlink:href="#p" transform="matrix(14.96 0 0 -14.96 37.35 111.412)" fill="#333"/><use xlink:href="#q" transform="matrix(14.96 0 0 -14.96 45.398 111.412)" fill="#333"/><use xlink:href="#x" transform="matrix(14.96 0 0 -14.96 48.899 111.412)" fill="#333"/><clipPath id="y"><path transform="matrix(1 0 0 -1 0 576)" d="M64.8 319.113h138.362v233.761H64.8z"/></clipPath><g clip-path="url(#y)"><path stroke-width=".8" stroke-linecap="round" stroke-linejoin="round" fill="none" stroke="#d5d6d5" d="M64.8 62.522h138.362"/></g><symbol id="z"><path transform="matrix(.001 0 0 .001 -.041 .011)" d="M177 388c-37 13-64 32-82 57-18 24-26 54-26 89 0 52 18 95 56 131s88 54 150 54 113-19 151-55 57-80 57-132c0-34-9-63-26-87-18-25-44-44-80-57 44-14 77-37 100-69s35-70 35-114c0-62-22-113-65-154-44-42-101-62-171-62-71 0-128 20-171 62-43 41-64 93-64 156 0 46 11 85 35 117 23 31 57 52 101 64m-18 149c0-34 11-62 33-83 22-22 50-32 85-32 34 0 61 10 83 32 22 21 33 47 33 78 0 32-12 59-34 81s-50 33-83 33c-34 0-62-11-84-32-22-22-33-47-33-77m-28-330c0-26 6-50 18-73 12-24 29-42 53-55 23-13 48-19 75-19 42 0 76 13 104 40 27 27 41 62 41 104s-14 76-42 104-64 42-106 42-76-14-103-41c-27-28-40-62-40-102"/></symbol><use xlink:href="#p" transform="matrix(14.96 0 0 -14.96 37.35 67.874)" fill="#333"/><use xlink:href="#q" transform="matrix(14.96 0 0 -14.96 45.398 67.874)" fill="#333"/><use xlink:href="#z" transform="matrix(14.96 0 0 -14.96 48.809 68.038)" fill="#333"/><symbol id="A"><path transform="translate(-.079) scale(.001)" d="M79 0v716h518v-85H174V412h396v-84H174V84h439V0H79"/></symbol><symbol id="B"><path transform="matrix(.001 0 0 .001 -.018 .006)" d="m258 79 13-78c-26-4-48-7-67-7-32 0-57 5-74 14-18 10-30 23-37 40-8 16-11 51-11 104v298H18v69h64v128l87 53V519h89v-69h-89V147c0-26 1-42 5-49 3-7 8-13 15-17s17-6 30-6c10 0 23 1 39 4"/></symbol><symbol id="D"><path transform="matrix(.001 0 0 .001 -.061 .209)" d="M234-209C185-148 144-77 111 4 77 86 61 171 61 259c0 77 12 151 37 223 29 82 74 164 136 246h63c-40-68-66-117-78-145-20-45-36-92-47-141-14-61-21-122-21-183 0-157 48-312 146-468h-63"/></symbol><symbol id="E"><path transform="translate(-.003) scale(.001)" d="M162 0 3 519h91l82-300 31-111c1 5 10 41 27 107l82 304h91l77-301 26-99 30 100 89 300h85L552 0h-91l-83 311-20 88L253 0h-91"/></symbol><symbol id="F"><path transform="matrix(.001 0 0 .001 -.066 .198)" d="M66-198v717h80v-68c18 26 40 46 64 59s52 20 86 20c44 0 83-12 117-34 34-23 59-55 77-97 17-42 26-87 26-136 0-53-10-101-29-143-19-43-47-76-83-98s-74-33-114-33c-30 0-56 6-79 18-24 12-43 27-57 47v-252H66m80 454c0-67 13-116 40-148s60-47 98-47c39 0 72 16 100 49s42 84 42 154c0 66-14 115-41 148-27 32-59 49-97 49s-71-18-99-53c-29-35-43-86-43-152"/></symbol><symbol id="G"><path transform="matrix(.001 0 0 .001 -.061 .209)" d="M124-209H61c97 156 146 311 146 468 0 61-7 122-21 182-12 48-27 95-47 141-13 28-39 77-78 146h63c60-82 105-164 135-246 25-72 38-146 38-223 0-88-17-173-51-255-34-81-74-152-122-213"/></symbol><use xlink:href="#A" transform="matrix(0 -16.32 -16.32 0 28.281 202.186)" fill="#333"/><use xlink:href="#d" transform="matrix(0 -16.32 -16.32 0 28.281 191.513)" fill="#333"/><use xlink:href="#B" transform="matrix(0 -16.32 -16.32 0 28.38 183.222)" fill="#333"/><use xlink:href="#m" transform="matrix(0 -16.32 -16.32 0 28.281 177.918)" fill="#333"/><use xlink:href="#j" transform="matrix(0 -16.32 -16.32 0 31.692 173.283)" fill="#333"/><use xlink:href="#C" transform="matrix(0 -16.32 -16.32 0 33.585 176.237)" fill="#333"/><use xlink:href="#e" transform="matrix(0 -16.32 -16.32 0 28.281 159.558)" fill="#333"/><use xlink:href="#l" transform="matrix(0 -16.32 -16.32 0 28.46 148.477)" fill="#333"/><use xlink:href="#B" transform="matrix(0 -16.32 -16.32 0 28.38 139.697)" fill="#333"/><use xlink:href="#i" transform="matrix(0 -16.32 -16.32 0 28.46 134.85)" fill="#333"/><use xlink:href="#C" transform="matrix(0 -16.32 -16.32 0 33.585 137.232)" fill="#333"/><use xlink:href="#D" transform="matrix(0 -16.32 -16.32 0 31.692 120.847)" fill="#333"/><use xlink:href="#E" transform="matrix(0 -16.32 -16.32 0 28.281 116.359)" fill="#333"/><use xlink:href="#F" transform="matrix(0 -16.32 -16.32 0 31.513 103.548)" fill="#333"/><use xlink:href="#c" transform="matrix(0 -16.32 -16.32 0 28.281 94.474)" fill="#333"/><use xlink:href="#G" transform="matrix(0 -16.32 -16.32 0 31.692 80.96)" fill="#333"/><clipPath id="H"><path transform="matrix(1 0 0 -1 0 576)" d="M64.8 319.113h138.362v233.761H64.8z"/></clipPath><g clip-path="url(#H)"><path d="M71.718 137.623h55.345V68.375H71.718v69.248z" fill="#3274a1"/><path stroke-width="1.2" stroke-miterlimit="10" fill="none" stroke="#505050" d="M71.718 137.623h55.345V68.375H71.718v69.248z"/></g><clipPath id="I"><path transform="matrix(1 0 0 -1 0 576)" d="M64.8 319.113h138.362v233.761H64.8z"/></clipPath><g clip-path="url(#I)"><path d="M140.9 211.467h55.344v-109.21H140.9v109.21z" fill="#e1812c"/><path stroke-width="1.2" stroke-miterlimit="10" fill="none" stroke="#505050" d="M140.9 211.467h55.344v-109.21H140.9v109.21z"/></g><clipPath id="J"><path transform="matrix(1 0 0 -1 0 576)" d="M64.8 319.113h138.362v233.761H64.8z"/></clipPath><g clip-path="url(#J)"><path d="m192.785 33.751 6.918 12.75h-6.883v8.501h-.07v-8.5h-6.883z"/><path stroke-width="2" stroke-miterlimit="10" fill="none" stroke="#000" d="m192.785 33.751 6.918 12.75h-6.883v8.501h-.07v-8.5h-6.883z"/></g><clipPath id="K"><path transform="matrix(1 0 0 -1 0 576)" d="M64.8 319.113h138.362v233.761H64.8z"/></clipPath><g clip-path="url(#K)"><path stroke-width="1.2" stroke-linecap="round" stroke-linejoin="round" fill="none" stroke="#505050" d="M99.39 137.623v34.624"/></g><clipPath id="L"><path transform="matrix(1 0 0 -1 0 576)" d="M64.8 319.113h138.362v233.761H64.8z"/></clipPath><g clip-path="url(#L)"><path stroke-width="1.2" stroke-linecap="round" stroke-linejoin="round" fill="none" stroke="#505050" d="M99.39 68.375V33.751"/></g><clipPath id="M"><path transform="matrix(1 0 0 -1 0 576)" d="M64.8 319.113h138.362v233.761H64.8z"/></clipPath><g clip-path="url(#M)"><path stroke-width="1.2" stroke-linecap="round" stroke-linejoin="round" fill="none" stroke="#505050" d="M85.554 172.247h27.673"/></g><clipPath id="N"><path transform="matrix(1 0 0 -1 0 576)" d="M64.8 319.113h138.362v233.761H64.8z"/></clipPath><g clip-path="url(#N)"><path stroke-width="1.2" stroke-linecap="round" stroke-linejoin="round" fill="none" stroke="#505050" d="M85.554 33.751h27.673"/></g><clipPath id="O"><path transform="matrix(1 0 0 -1 0 576)" d="M64.8 319.113h138.362v233.761H64.8z"/></clipPath><g clip-path="url(#O)"><path stroke-width="1.2" stroke-linecap="round" stroke-linejoin="round" fill="none" stroke="#505050" d="M168.572 211.467v34.795"/></g><clipPath id="P"><path transform="matrix(1 0 0 -1 0 576)" d="M64.8 319.113h138.362v233.761H64.8z"/></clipPath><g clip-path="url(#P)"><path stroke-width="1.2" stroke-linecap="round" stroke-linejoin="round" fill="none" stroke="#505050" d="M168.572 102.257V73.295"/></g><clipPath id="Q"><path transform="matrix(1 0 0 -1 0 576)" d="M64.8 319.113h138.362v233.761H64.8z"/></clipPath><g clip-path="url(#Q)"><path stroke-width="1.2" stroke-linecap="round" stroke-linejoin="round" fill="none" stroke="#505050" d="M154.736 246.262h27.672"/></g><clipPath id="R"><path transform="matrix(1 0 0 -1 0 576)" d="M64.8 319.113h138.362v233.761H64.8z"/></clipPath><g clip-path="url(#R)"><path stroke-width="1.2" stroke-linecap="round" stroke-linejoin="round" fill="none" stroke="#505050" d="M154.736 73.295h27.672"/></g><clipPath id="S"><path transform="matrix(1 0 0 -1 0 576)" d="M64.8 319.113h138.362v233.761H64.8z"/></clipPath><g clip-path="url(#S)"><path stroke-width="7" stroke-linejoin="round" fill="none" stroke="#505050" d="M71.718 102.999h55.345"/></g><clipPath id="T"><path transform="matrix(1 0 0 -1 0 576)" d="M64.8 319.113h138.362v233.761H64.8z"/></clipPath><g clip-path="url(#T)"><path stroke-width="7" stroke-linejoin="round" fill="none" stroke="#505050" d="M140.9 155.89h55.344"/></g><path stroke-linecap="square" stroke-miterlimit="10" fill="none" stroke="#d5d6d5" d="M64.8 256.887V23.126M203.162 256.887V23.126M64.8 256.887h138.362M64.8 23.126h138.362"/><path d="M265.574 256.887h138.363V23.126H265.574z" fill="#fff"/><use xlink:href="#a" transform="matrix(14.96 0 0 -14.96 277.208 275.89)" fill="#333"/><use xlink:href="#b" transform="matrix(14.96 0 0 -14.96 287.366 276.055)" fill="#333"/><use xlink:href="#c" transform="matrix(14.96 0 0 -14.96 296.178 275.89)" fill="#333"/><use xlink:href="#b" transform="matrix(14.96 0 0 -14.96 308.146 276.055)" fill="#333"/><use xlink:href="#d" transform="matrix(14.96 0 0 -14.96 316.957 275.89)" fill="#333"/><use xlink:href="#e" transform="matrix(14.96 0 0 -14.96 354.747 275.89)" fill="#333"/><use xlink:href="#f" transform="matrix(14.96 0 0 -14.96 365.114 276.055)" fill="#333"/><use xlink:href="#g" transform="matrix(14.96 0 0 -14.96 375.84 276.055)" fill="#333"/><use xlink:href="#h" transform="matrix(16.32 0 0 -16.32 301.017 294.531)" fill="#333"/><use xlink:href="#i" transform="matrix(16.32 0 0 -16.32 311.315 294.71)" fill="#333"/><use xlink:href="#j" transform="matrix(16.32 0 0 -16.32 320.046 297.942)" fill="#333"/><use xlink:href="#k" transform="matrix(16.32 0 0 -16.32 329.006 294.71)" fill="#333"/><use xlink:href="#b" transform="matrix(16.32 0 0 -16.32 337.558 294.71)" fill="#333"/><use xlink:href="#l" transform="matrix(16.32 0 0 -16.32 346.68 294.71)" fill="#333"/><use xlink:href="#m" transform="matrix(16.32 0 0 -16.32 356.228 294.531)" fill="#333"/><use xlink:href="#n" transform="matrix(16.32 0 0 -16.32 361.157 294.71)" fill="#333"/><clipPath id="U"><path transform="matrix(1 0 0 -1 0 576)" d="M265.574 319.113h138.363v233.761H265.574z"/></clipPath><g clip-path="url(#U)"><path stroke-width=".8" stroke-linecap="round" stroke-linejoin="round" fill="none" stroke="#d5d6d5" d="M265.574 228.18h138.363"/></g><symbol id="V"><path transform="translate(-.029) scale(.001)" d="M503 84V0H30c-1 21 3 41 11 61 12 32 31 63 57 95 26 31 65 67 115 109 78 63 130 113 158 151 27 37 41 72 41 106s-13 64-38 88-57 36-97 36c-42 0-76-13-101-38-26-26-39-61-39-106l-90 10c6 67 29 118 69 154 40 35 95 53 163 53s123-20 163-58 60-85 60-141c0-29-6-57-18-85s-31-57-58-87c-27-31-72-73-135-126-53-44-87-74-102-90s-27-32-37-48h351"/></symbol><use xlink:href="#p" transform="matrix(14.96 0 0 -14.96 238.124 233.532)" fill="#333"/><use xlink:href="#q" transform="matrix(14.96 0 0 -14.96 246.172 233.532)" fill="#333"/><use xlink:href="#V" transform="matrix(14.96 0 0 -14.96 249.404 233.532)" fill="#333"/><clipPath id="W"><path transform="matrix(1 0 0 -1 0 576)" d="M265.574 319.113h138.363v233.761H265.574z"/></clipPath><g clip-path="url(#W)"><path stroke-width=".8" stroke-linecap="round" stroke-linejoin="round" fill="none" stroke="#d5d6d5" d="M265.574 169.006h138.363"/></g><use xlink:href="#p" transform="matrix(14.96 0 0 -14.96 238.124 174.358)" fill="#333"/><use xlink:href="#q" transform="matrix(14.96 0 0 -14.96 246.172 174.358)" fill="#333"/><use xlink:href="#r" transform="matrix(14.96 0 0 -14.96 249.164 174.358)" fill="#333"/><clipPath id="X"><path transform="matrix(1 0 0 -1 0 576)" d="M265.574 319.113h138.363v233.761H265.574z"/></clipPath><g clip-path="url(#X)"><path stroke-width=".8" stroke-linecap="round" stroke-linejoin="round" fill="none" stroke="#d5d6d5" d="M265.574 109.832h138.363"/></g><use xlink:href="#p" transform="matrix(14.96 0 0 -14.96 238.124 115.184)" fill="#333"/><use xlink:href="#q" transform="matrix(14.96 0 0 -14.96 246.172 115.184)" fill="#333"/><use xlink:href="#v" transform="matrix(14.96 0 0 -14.96 249.538 115.348)" fill="#333"/><clipPath id="Y"><path transform="matrix(1 0 0 -1 0 576)" d="M265.574 319.113h138.363v233.761H265.574z"/></clipPath><g clip-path="url(#Y)"><path stroke-width=".8" stroke-linecap="round" stroke-linejoin="round" fill="none" stroke="#d5d6d5" d="M265.574 50.658h138.363"/></g><use xlink:href="#p" transform="matrix(14.96 0 0 -14.96 238.124 56.01)" fill="#333"/><use xlink:href="#q" transform="matrix(14.96 0 0 -14.96 246.172 56.01)" fill="#333"/><use xlink:href="#z" transform="matrix(14.96 0 0 -14.96 249.583 56.174)" fill="#333"/><symbol id="Z"><path transform="translate(-.064) scale(.001)" d="M64 0v716h88V0H64"/></symbol><symbol id="aa"><path transform="translate(-.066) scale(.001)" d="M66 615v101h88V615H66M66 0v519h88V0H66"/></symbol><symbol id="ab"><path transform="matrix(.001 0 0 .001 -.039 .011)" d="m404 190 87-11c-10-60-34-107-73-140-39-34-87-50-143-50-72 0-129 23-172 69S39 170 39 257c0 56 9 105 28 147 18 42 46 73 84 94s79 32 124 32c56 0 102-15 138-43s59-69 69-121l-85-13c-8 34-23 60-43 78-21 18-46 27-75 27-45 0-81-16-109-48s-41-82-41-150c0-70 13-121 40-152 26-32 61-47 105-47 34 0 63 10 86 31s38 54 44 98"/></symbol><symbol id="ac"><path transform="translate(-.066) scale(.001)" d="M66 0v716h88V308l208 211h114L278 326 496 0H388L216 265l-62-59V0H66"/></symbol><symbol id="ad"><path transform="translate(-.073) scale(.001)" d="M73 0v716h95V84h353V0H73"/></symbol><symbol id="ae"><path transform="matrix(.001 0 0 .001 -.031 .011)" d="m31 155 87 13c4-35 18-62 40-80s54-27 94-27 70 8 90 24c19 16 29 36 29 58 0 20-9 35-26 47-12 8-42 18-90 30-64 16-109 30-134 42s-44 28-57 49-19 44-19 70c0 23 5 44 16 64 10 20 25 36 43 49 14 10 32 18 56 25s49 11 76 11c40 0 76-6 107-18s54-27 69-47c14-20 24-47 30-80l-86-12c-4 26-16 47-34 62-19 15-45 23-79 23-41 0-70-7-87-20-18-14-26-29-26-47 0-12 3-22 11-31 7-10 18-17 34-23 8-4 34-11 77-23 62-16 106-30 130-40 24-11 44-27 58-47s21-45 21-75-9-57-26-83-42-45-74-59-69-21-109-21C184-11 133 2 98 30 62 58 40 99 31 155"/></symbol><symbol id="af"><path transform="matrix(.001 0 0 .001 0 .011)" d="m0-11 208 739h70L71-11H0"/></symbol><symbol id="ag"><path transform="translate(-.066) scale(.001)" d="M66 0v716h88V459c40 47 92 71 155 71 38 0 72-8 100-23s49-36 61-62c12-27 18-66 18-116V0h-88v329c0 44-10 76-29 96s-46 30-80 30c-26 0-51-7-74-21s-39-32-49-55-14-55-14-95V0H66"/></symbol><use xlink:href="#f" transform="matrix(0 -16.32 -16.32 0 229.235 223.065)" fill="#333"/><use xlink:href="#Z" transform="matrix(0 -16.32 -16.32 0 229.056 211.054)" fill="#333"/><use xlink:href="#aa" transform="matrix(0 -16.32 -16.32 0 229.056 207.398)" fill="#333"/><use xlink:href="#ab" transform="matrix(0 -16.32 -16.32 0 229.235 204.216)" fill="#333"/><use xlink:href="#ac" transform="matrix(0 -16.32 -16.32 0 229.056 195.615)" fill="#333"/><use xlink:href="#C" transform="matrix(0 -16.32 -16.32 0 234.36 199.385)" fill="#333"/><use xlink:href="#ad" transform="matrix(0 -16.32 -16.32 0 229.056 182.804)" fill="#333"/><use xlink:href="#b" transform="matrix(0 -16.32 -16.32 0 229.235 174.383)" fill="#333"/><use xlink:href="#l" transform="matrix(0 -16.32 -16.32 0 229.235 165.26)" fill="#333"/><use xlink:href="#n" transform="matrix(0 -16.32 -16.32 0 229.235 156.219)" fill="#333"/><use xlink:href="#C" transform="matrix(0 -16.32 -16.32 0 234.36 158.552)" fill="#333"/><use xlink:href="#D" transform="matrix(0 -16.32 -16.32 0 232.467 142.167)" fill="#333"/><use xlink:href="#ab" transform="matrix(0 -16.32 -16.32 0 229.235 137.092)" fill="#333"/><use xlink:href="#Z" transform="matrix(0 -16.32 -16.32 0 229.056 128.524)" fill="#333"/><use xlink:href="#aa" transform="matrix(0 -16.32 -16.32 0 229.056 124.868)" fill="#333"/><use xlink:href="#ab" transform="matrix(0 -16.32 -16.32 0 229.235 121.686)" fill="#333"/><use xlink:href="#ac" transform="matrix(0 -16.32 -16.32 0 229.056 113.085)" fill="#333"/><use xlink:href="#ae" transform="matrix(0 -16.32 -16.32 0 229.235 105.496)" fill="#333"/><use xlink:href="#af" transform="matrix(0 -16.32 -16.32 0 229.235 97.842)" fill="#333"/><use xlink:href="#ab" transform="matrix(0 -16.32 -16.32 0 229.235 92.669)" fill="#333"/><use xlink:href="#ag" transform="matrix(0 -16.32 -16.32 0 229.056 84.068)" fill="#333"/><use xlink:href="#l" transform="matrix(0 -16.32 -16.32 0 229.235 75.484)" fill="#333"/><use xlink:href="#m" transform="matrix(0 -16.32 -16.32 0 229.056 65.936)" fill="#333"/><use xlink:href="#G" transform="matrix(0 -16.32 -16.32 0 232.467 60.567)" fill="#333"/><clipPath id="ah"><path transform="matrix(1 0 0 -1 0 576)" d="M265.574 319.113h138.363v233.761H265.574z"/></clipPath><g clip-path="url(#ah)"><path d="M272.493 121.808h55.345V63.103h-55.345v58.705z" fill="#3274a1"/><path stroke-width="1.2" stroke-miterlimit="10" fill="none" stroke="#505050" d="M272.493 121.808h55.345V63.103h-55.345v58.705z"/></g><clipPath id="ai"><path transform="matrix(1 0 0 -1 0 576)" d="M265.574 319.113h138.363v233.761H265.574z"/></clipPath><g clip-path="url(#ai)"><path d="M341.674 236.736h55.345v-30.073h-55.345v30.073z" fill="#e1812c"/><path stroke-width="1.2" stroke-miterlimit="10" fill="none" stroke="#505050" d="M341.674 236.736h55.345v-30.073h-55.345v30.073z"/></g><clipPath id="aj"><path transform="matrix(1 0 0 -1 0 576)" d="M265.574 319.113h138.363v233.761H265.574z"/></clipPath><g clip-path="url(#aj)"><path d="m393.56 55.002-6.918-12.75h6.883v-8.5h.07v8.5h6.883z"/><path stroke-width="2" stroke-miterlimit="10" fill="none" stroke="#000" d="m393.56 55.002-6.918-12.75h6.883v-8.5h.07v8.5h6.883z"/></g><clipPath id="ak"><path transform="matrix(1 0 0 -1 0 576)" d="M265.574 319.113h138.363v233.761H265.574z"/></clipPath><g clip-path="url(#ak)"><path stroke-width="1.2" stroke-linecap="round" stroke-linejoin="round" fill="none" stroke="#505050" d="M300.165 121.808v29.352"/></g><clipPath id="al"><path transform="matrix(1 0 0 -1 0 576)" d="M265.574 319.113h138.363v233.761H265.574z"/></clipPath><g clip-path="url(#al)"><path stroke-width="1.2" stroke-linecap="round" stroke-linejoin="round" fill="none" stroke="#505050" d="M300.165 63.103V33.751"/></g><clipPath id="am"><path transform="matrix(1 0 0 -1 0 576)" d="M265.574 319.113h138.363v233.761H265.574z"/></clipPath><g clip-path="url(#am)"><path stroke-width="1.2" stroke-linecap="round" stroke-linejoin="round" fill="none" stroke="#505050" d="M286.329 151.16H314"/></g><clipPath id="an"><path transform="matrix(1 0 0 -1 0 576)" d="M265.574 319.113h138.363v233.761H265.574z"/></clipPath><g clip-path="url(#an)"><path stroke-width="1.2" stroke-linecap="round" stroke-linejoin="round" fill="none" stroke="#505050" d="M286.329 33.751H314"/></g><clipPath id="ao"><path transform="matrix(1 0 0 -1 0 576)" d="M265.574 319.113h138.363v233.761H265.574z"/></clipPath><g clip-path="url(#ao)"><path stroke-width="1.2" stroke-linecap="round" stroke-linejoin="round" fill="none" stroke="#505050" d="M369.346 236.736v9.526"/></g><clipPath id="ap"><path transform="matrix(1 0 0 -1 0 576)" d="M265.574 319.113h138.363v233.761H265.574z"/></clipPath><g clip-path="url(#ap)"><path stroke-width="1.2" stroke-linecap="round" stroke-linejoin="round" fill="none" stroke="#505050" d="M369.346 206.663h0"/></g><clipPath id="aq"><path transform="matrix(1 0 0 -1 0 576)" d="M265.574 319.113h138.363v233.761H265.574z"/></clipPath><g clip-path="url(#aq)"><path stroke-width="1.2" stroke-linecap="round" stroke-linejoin="round" fill="none" stroke="#505050" d="M355.51 246.262h27.673"/></g><clipPath id="ar"><path transform="matrix(1 0 0 -1 0 576)" d="M265.574 319.113h138.363v233.761H265.574z"/></clipPath><g clip-path="url(#ar)"><path stroke-width="1.2" stroke-linecap="round" stroke-linejoin="round" fill="none" stroke="#505050" d="M355.51 206.663h27.673"/></g><clipPath id="as"><path transform="matrix(1 0 0 -1 0 576)" d="M265.574 319.113h138.363v233.761H265.574z"/></clipPath><g clip-path="url(#as)"><path stroke-width="7" stroke-linejoin="round" fill="none" stroke="#505050" d="M272.493 92.456h55.345"/></g><clipPath id="at"><path transform="matrix(1 0 0 -1 0 576)" d="M265.574 319.113h138.363v233.761H265.574z"/></clipPath><g clip-path="url(#at)"><path stroke-width="7" stroke-linejoin="round" fill="none" stroke="#505050" d="M341.674 220.111h55.345"/></g><path stroke-linecap="square" stroke-miterlimit="10" fill="none" stroke="#d5d6d5" d="M265.574 256.887V23.126M403.937 256.887V23.126M265.574 256.887h138.363M265.574 23.126h138.363"/><path d="M64.8 536.074h138.362V302.313H64.8z" fill="#fff"/><use xlink:href="#a" transform="matrix(14.96 0 0 -14.96 76.434 555.077)" fill="#333"/><use xlink:href="#b" transform="matrix(14.96 0 0 -14.96 86.592 555.242)" fill="#333"/><use xlink:href="#c" transform="matrix(14.96 0 0 -14.96 95.403 555.077)" fill="#333"/><use xlink:href="#b" transform="matrix(14.96 0 0 -14.96 107.371 555.242)" fill="#333"/><use xlink:href="#d" transform="matrix(14.96 0 0 -14.96 116.183 555.077)" fill="#333"/><use xlink:href="#e" transform="matrix(14.96 0 0 -14.96 153.972 555.077)" fill="#333"/><use xlink:href="#f" transform="matrix(14.96 0 0 -14.96 164.34 555.242)" fill="#333"/><use xlink:href="#g" transform="matrix(14.96 0 0 -14.96 175.066 555.242)" fill="#333"/><use xlink:href="#h" transform="matrix(16.32 0 0 -16.32 100.243 573.718)" fill="#333"/><use xlink:href="#i" transform="matrix(16.32 0 0 -16.32 110.54 573.898)" fill="#333"/><use xlink:href="#j" transform="matrix(16.32 0 0 -16.32 119.272 577.129)" fill="#333"/><use xlink:href="#k" transform="matrix(16.32 0 0 -16.32 128.232 573.898)" fill="#333"/><use xlink:href="#b" transform="matrix(16.32 0 0 -16.32 136.783 573.898)" fill="#333"/><use xlink:href="#l" transform="matrix(16.32 0 0 -16.32 145.906 573.898)" fill="#333"/><use xlink:href="#m" transform="matrix(16.32 0 0 -16.32 155.453 573.718)" fill="#333"/><use xlink:href="#n" transform="matrix(16.32 0 0 -16.32 160.382 573.898)" fill="#333"/><clipPath id="au"><path transform="matrix(1 0 0 -1 0 576)" d="M64.8 39.926h138.362v233.761H64.8z"/></clipPath><g clip-path="url(#au)"><path stroke-width=".8" stroke-linecap="round" stroke-linejoin="round" fill="none" stroke="#d5d6d5" d="M64.8 525.449h138.362"/></g><symbol id="av"><path transform="matrix(.001 0 0 .001 -.042 .011)" d="M42 353c0 84 8 152 26 204 17 52 43 92 77 120s78 42 130 42c38 0 72-8 101-24 28-16 52-38 71-67s34-64 45-106c10-42 16-99 16-169 0-84-9-152-26-204s-43-91-77-119-78-41-130-41c-70 0-124 24-163 73-47 59-70 156-70 291m90 0c0-118 13-196 41-235 27-39 61-58 102-58 40 0 73 19 101 58s42 117 42 235-14 196-42 235c-28 38-62 58-102 58-41 0-73-17-97-51-30-44-45-125-45-242"/></symbol><use xlink:href="#av" transform="matrix(14.96 0 0 -14.96 28.035 530.965)" fill="#333"/><use xlink:href="#q" transform="matrix(14.96 0 0 -14.96 37.085 530.8)" fill="#333"/><use xlink:href="#av" transform="matrix(14.96 0 0 -14.96 40.511 530.965)" fill="#333"/><use xlink:href="#av" transform="matrix(14.96 0 0 -14.96 48.829 530.965)" fill="#333"/><clipPath id="aw"><path transform="matrix(1 0 0 -1 0 576)" d="M64.8 39.926h138.362v233.761H64.8z"/></clipPath><g clip-path="url(#aw)"><path stroke-width=".8" stroke-linecap="round" stroke-linejoin="round" fill="none" stroke="#d5d6d5" d="M64.8 470.196h138.362"/></g><use xlink:href="#av" transform="matrix(14.96 0 0 -14.96 28.035 475.712)" fill="#333"/><use xlink:href="#q" transform="matrix(14.96 0 0 -14.96 37.085 475.548)" fill="#333"/><use xlink:href="#av" transform="matrix(14.96 0 0 -14.96 40.511 475.712)" fill="#333"/><use xlink:href="#V" transform="matrix(14.96 0 0 -14.96 48.634 475.548)" fill="#333"/><clipPath id="ax"><path transform="matrix(1 0 0 -1 0 576)" d="M64.8 39.926h138.362v233.761H64.8z"/></clipPath><g clip-path="url(#ax)"><path stroke-width=".8" stroke-linecap="round" stroke-linejoin="round" fill="none" stroke="#d5d6d5" d="M64.8 414.943h138.362"/></g><use xlink:href="#av" transform="matrix(14.96 0 0 -14.96 28.035 420.46)" fill="#333"/><use xlink:href="#q" transform="matrix(14.96 0 0 -14.96 37.085 420.295)" fill="#333"/><use xlink:href="#av" transform="matrix(14.96 0 0 -14.96 40.511 420.46)" fill="#333"/><use xlink:href="#r" transform="matrix(14.96 0 0 -14.96 48.395 420.295)" fill="#333"/><clipPath id="ay"><path transform="matrix(1 0 0 -1 0 576)" d="M64.8 39.926h138.362v233.761H64.8z"/></clipPath><g clip-path="url(#ay)"><path stroke-width=".8" stroke-linecap="round" stroke-linejoin="round" fill="none" stroke="#d5d6d5" d="M64.8 359.69h138.362"/></g><use xlink:href="#av" transform="matrix(14.96 0 0 -14.96 28.035 365.207)" fill="#333"/><use xlink:href="#q" transform="matrix(14.96 0 0 -14.96 37.085 365.042)" fill="#333"/><use xlink:href="#av" transform="matrix(14.96 0 0 -14.96 40.511 365.207)" fill="#333"/><use xlink:href="#v" transform="matrix(14.96 0 0 -14.96 48.77 365.207)" fill="#333"/><clipPath id="az"><path transform="matrix(1 0 0 -1 0 576)" d="M64.8 39.926h138.362v233.761H64.8z"/></clipPath><g clip-path="url(#az)"><path stroke-width=".8" stroke-linecap="round" stroke-linejoin="round" fill="none" stroke="#d5d6d5" d="M64.8 304.438h138.362"/></g><use xlink:href="#av" transform="matrix(14.96 0 0 -14.96 28.035 309.954)" fill="#333"/><use xlink:href="#q" transform="matrix(14.96 0 0 -14.96 37.085 309.79)" fill="#333"/><use xlink:href="#av" transform="matrix(14.96 0 0 -14.96 40.511 309.954)" fill="#333"/><use xlink:href="#z" transform="matrix(14.96 0 0 -14.96 48.814 309.954)" fill="#333"/><use xlink:href="#f" transform="matrix(0 -16.32 -16.32 0 20.351 475.518)" fill="#333"/><use xlink:href="#b" transform="matrix(0 -16.32 -16.32 0 20.351 464.013)" fill="#333"/><use xlink:href="#m" transform="matrix(0 -16.32 -16.32 0 20.172 454.416)" fill="#333"/><use xlink:href="#m" transform="matrix(0 -16.32 -16.32 0 20.172 448.982)" fill="#333"/><use xlink:href="#i" transform="matrix(0 -16.32 -16.32 0 20.351 444.004)" fill="#333"/><use xlink:href="#ab" transform="matrix(0 -16.32 -16.32 0 20.351 434.898)" fill="#333"/><use xlink:href="#B" transform="matrix(0 -16.32 -16.32 0 20.27 427.08)" fill="#333"/><use xlink:href="#aa" transform="matrix(0 -16.32 -16.32 0 20.172 421.76)" fill="#333"/><use xlink:href="#b" transform="matrix(0 -16.32 -16.32 0 20.351 418.676)" fill="#333"/><use xlink:href="#d" transform="matrix(0 -16.32 -16.32 0 20.172 409.063)" fill="#333"/><use xlink:href="#C" transform="matrix(0 -16.32 -16.32 0 25.476 411.92)" fill="#333"/><use xlink:href="#e" transform="matrix(0 -16.32 -16.32 0 20.172 395.24)" fill="#333"/><use xlink:href="#l" transform="matrix(0 -16.32 -16.32 0 20.351 384.159)" fill="#333"/><use xlink:href="#B" transform="matrix(0 -16.32 -16.32 0 20.27 375.379)" fill="#333"/><use xlink:href="#i" transform="matrix(0 -16.32 -16.32 0 20.351 370.532)" fill="#333"/><clipPath id="aA"><path transform="matrix(1 0 0 -1 0 576)" d="M64.8 39.926h138.362v233.761H64.8z"/></clipPath><g clip-path="url(#aA)"><path stroke-width="1.2" stroke-miterlimit="10" fill="none" stroke="#505050" d="M71.718 525.449h55.345-55.345z"/></g><clipPath id="aB"><path transform="matrix(1 0 0 -1 0 576)" d="M64.8 39.926h138.362v233.761H64.8z"/></clipPath><g clip-path="url(#aB)"><path d="M140.9 525.449h55.344v-212.51H140.9v212.51z" fill="#e1812c"/><path stroke-width="1.2" stroke-miterlimit="10" fill="none" stroke="#505050" d="M140.9 525.449h55.344v-212.51H140.9v212.51z"/></g><clipPath id="aC"><path transform="matrix(1 0 0 -1 0 576)" d="M64.8 39.926h138.362v233.761H64.8z"/></clipPath><g clip-path="url(#aC)"><path d="m192.785 334.19-6.918-12.751h6.884v-8.5h.069v8.5h6.883z"/><path stroke-width="2" stroke-miterlimit="10" fill="none" stroke="#000" d="m192.785 334.19-6.918-12.751h6.884v-8.5h.069v8.5h6.883z"/></g><clipPath id="aD"><path transform="matrix(1 0 0 -1 0 576)" d="M64.8 39.926h138.362v233.761H64.8z"/></clipPath><g clip-path="url(#aD)"><path stroke-width="1.2" stroke-linecap="round" stroke-linejoin="round" fill="none" stroke="#505050" d="M99.39 525.449h0"/></g><clipPath id="aE"><path transform="matrix(1 0 0 -1 0 576)" d="M64.8 39.926h138.362v233.761H64.8z"/></clipPath><g clip-path="url(#aE)"><path stroke-width="1.2" stroke-linecap="round" stroke-linejoin="round" fill="none" stroke="#505050" d="M99.39 525.449h0"/></g><clipPath id="aF"><path transform="matrix(1 0 0 -1 0 576)" d="M64.8 39.926h138.362v233.761H64.8z"/></clipPath><g clip-path="url(#aF)"><path stroke-width="1.2" stroke-linecap="round" stroke-linejoin="round" fill="none" stroke="#505050" d="M85.554 525.449h27.673"/></g><clipPath id="aG"><path transform="matrix(1 0 0 -1 0 576)" d="M64.8 39.926h138.362v233.761H64.8z"/></clipPath><g clip-path="url(#aG)"><path stroke-width="1.2" stroke-linecap="round" stroke-linejoin="round" fill="none" stroke="#505050" d="M85.554 525.449h27.673"/></g><clipPath id="aH"><path transform="matrix(1 0 0 -1 0 576)" d="M64.8 39.926h138.362v233.761H64.8z"/></clipPath><g clip-path="url(#aH)"><path stroke-width="1.2" stroke-linecap="round" stroke-linejoin="round" fill="none" stroke="#505050" d="M168.572 525.449h0"/></g><clipPath id="aI"><path transform="matrix(1 0 0 -1 0 576)" d="M64.8 39.926h138.362v233.761H64.8z"/></clipPath><g clip-path="url(#aI)"><path stroke-width="1.2" stroke-linecap="round" stroke-linejoin="round" fill="none" stroke="#505050" d="M168.572 312.938h0"/></g><clipPath id="aJ"><path transform="matrix(1 0 0 -1 0 576)" d="M64.8 39.926h138.362v233.761H64.8z"/></clipPath><g clip-path="url(#aJ)"><path stroke-width="1.2" stroke-linecap="round" stroke-linejoin="round" fill="none" stroke="#505050" d="M154.736 525.449h27.672"/></g><clipPath id="aK"><path transform="matrix(1 0 0 -1 0 576)" d="M64.8 39.926h138.362v233.761H64.8z"/></clipPath><g clip-path="url(#aK)"><path stroke-width="1.2" stroke-linecap="round" stroke-linejoin="round" fill="none" stroke="#505050" d="M154.736 312.938h27.672"/></g><clipPath id="aL"><path transform="matrix(1 0 0 -1 0 576)" d="M64.8 39.926h138.362v233.761H64.8z"/></clipPath><g clip-path="url(#aL)"><path stroke-width="7" stroke-linejoin="round" fill="none" stroke="#505050" d="M71.718 525.449h55.345"/></g><clipPath id="aM"><path transform="matrix(1 0 0 -1 0 576)" d="M64.8 39.926h138.362v233.761H64.8z"/></clipPath><g clip-path="url(#aM)"><path stroke-width="7" stroke-linejoin="round" fill="none" stroke="#505050" d="M140.9 419.194h55.344"/></g><path stroke-linecap="square" stroke-miterlimit="10" fill="none" stroke="#d5d6d5" d="M64.8 536.074V302.313M203.162 536.074V302.313M64.8 536.074h138.362M64.8 302.313h138.362"/><path d="M265.574 536.074h138.363V302.313H265.574z" fill="#fff"/><use xlink:href="#a" transform="matrix(14.96 0 0 -14.96 277.208 555.077)" fill="#333"/><use xlink:href="#b" transform="matrix(14.96 0 0 -14.96 287.366 555.242)" fill="#333"/><use xlink:href="#c" transform="matrix(14.96 0 0 -14.96 296.178 555.077)" fill="#333"/><use xlink:href="#b" transform="matrix(14.96 0 0 -14.96 308.146 555.242)" fill="#333"/><use xlink:href="#d" transform="matrix(14.96 0 0 -14.96 316.957 555.077)" fill="#333"/><use xlink:href="#e" transform="matrix(14.96 0 0 -14.96 354.747 555.077)" fill="#333"/><use xlink:href="#f" transform="matrix(14.96 0 0 -14.96 365.114 555.242)" fill="#333"/><use xlink:href="#g" transform="matrix(14.96 0 0 -14.96 375.84 555.242)" fill="#333"/><use xlink:href="#h" transform="matrix(16.32 0 0 -16.32 301.017 573.718)" fill="#333"/><use xlink:href="#i" transform="matrix(16.32 0 0 -16.32 311.315 573.898)" fill="#333"/><use xlink:href="#j" transform="matrix(16.32 0 0 -16.32 320.046 577.129)" fill="#333"/><use xlink:href="#k" transform="matrix(16.32 0 0 -16.32 329.006 573.898)" fill="#333"/><use xlink:href="#b" transform="matrix(16.32 0 0 -16.32 337.558 573.898)" fill="#333"/><use xlink:href="#l" transform="matrix(16.32 0 0 -16.32 346.68 573.898)" fill="#333"/><use xlink:href="#m" transform="matrix(16.32 0 0 -16.32 356.228 573.718)" fill="#333"/><use xlink:href="#n" transform="matrix(16.32 0 0 -16.32 361.157 573.898)" fill="#333"/><clipPath id="aN"><path transform="matrix(1 0 0 -1 0 576)" d="M265.574 39.926h138.363v233.761H265.574z"/></clipPath><g clip-path="url(#aN)"><path stroke-width=".8" stroke-linecap="round" stroke-linejoin="round" fill="none" stroke="#d5d6d5" d="M265.574 525.449h138.363"/></g><use xlink:href="#av" transform="matrix(14.96 0 0 -14.96 228.809 530.965)" fill="#333"/><use xlink:href="#q" transform="matrix(14.96 0 0 -14.96 237.86 530.8)" fill="#333"/><use xlink:href="#av" transform="matrix(14.96 0 0 -14.96 241.286 530.965)" fill="#333"/><use xlink:href="#av" transform="matrix(14.96 0 0 -14.96 249.603 530.965)" fill="#333"/><clipPath id="aO"><path transform="matrix(1 0 0 -1 0 576)" d="M265.574 39.926h138.363v233.761H265.574z"/></clipPath><g clip-path="url(#aO)"><path stroke-width=".8" stroke-linecap="round" stroke-linejoin="round" fill="none" stroke="#d5d6d5" d="M265.574 461.696h138.363"/></g><use xlink:href="#av" transform="matrix(14.96 0 0 -14.96 228.809 467.212)" fill="#333"/><use xlink:href="#q" transform="matrix(14.96 0 0 -14.96 237.86 467.047)" fill="#333"/><use xlink:href="#av" transform="matrix(14.96 0 0 -14.96 241.286 467.212)" fill="#333"/><use xlink:href="#t" transform="matrix(14.96 0 0 -14.96 249.603 467.212)" fill="#333"/><clipPath id="aP"><path transform="matrix(1 0 0 -1 0 576)" d="M265.574 39.926h138.363v233.761H265.574z"/></clipPath><g clip-path="url(#aP)"><path stroke-width=".8" stroke-linecap="round" stroke-linejoin="round" fill="none" stroke="#d5d6d5" d="M265.574 397.943h138.363"/></g><use xlink:href="#av" transform="matrix(14.96 0 0 -14.96 228.809 403.459)" fill="#333"/><use xlink:href="#q" transform="matrix(14.96 0 0 -14.96 237.86 403.294)" fill="#333"/><use xlink:href="#p" transform="matrix(14.96 0 0 -14.96 242.288 403.294)" fill="#333"/><use xlink:href="#av" transform="matrix(14.96 0 0 -14.96 249.603 403.459)" fill="#333"/><clipPath id="aQ"><path transform="matrix(1 0 0 -1 0 576)" d="M265.574 39.926h138.363v233.761H265.574z"/></clipPath><g clip-path="url(#aQ)"><path stroke-width=".8" stroke-linecap="round" stroke-linejoin="round" fill="none" stroke="#d5d6d5" d="M265.574 334.19h138.363"/></g><use xlink:href="#av" transform="matrix(14.96 0 0 -14.96 228.809 339.705)" fill="#333"/><use xlink:href="#q" transform="matrix(14.96 0 0 -14.96 237.86 339.541)" fill="#333"/><use xlink:href="#p" transform="matrix(14.96 0 0 -14.96 242.288 339.541)" fill="#333"/><use xlink:href="#t" transform="matrix(14.96 0 0 -14.96 249.603 339.705)" fill="#333"/><symbol id="aR"><path transform="translate(-.082) scale(.001)" d="M82 0v716h483v-85H177V410h336v-85H177V0H82"/></symbol><use xlink:href="#aR" transform="matrix(0 -16.32 -16.32 0 220.946 475.441)" fill="#333"/><use xlink:href="#aa" transform="matrix(0 -16.32 -16.32 0 220.946 465.73)" fill="#333"/><use xlink:href="#d" transform="matrix(0 -16.32 -16.32 0 220.946 462.108)" fill="#333"/><use xlink:href="#l" transform="scale(16.32) rotate(-90 20.67 7.12)" fill="#333"/><use xlink:href="#Z" transform="matrix(0 -16.32 -16.32 0 220.946 443.993)" fill="#333"/><use xlink:href="#C" transform="matrix(0 -16.32 -16.32 0 226.25 452.267)" fill="#333"/><use xlink:href="#A" transform="matrix(0 -16.32 -16.32 0 220.946 435.588)" fill="#333"/><use xlink:href="#m" transform="matrix(0 -16.32 -16.32 0 220.946 424.93)" fill="#333"/><use xlink:href="#m" transform="matrix(0 -16.32 -16.32 0 220.946 419.496)" fill="#333"/><use xlink:href="#b" transform="matrix(0 -16.32 -16.32 0 221.126 414.584)" fill="#333"/><use xlink:href="#m" transform="matrix(0 -16.32 -16.32 0 220.946 404.988)" fill="#333"/><use xlink:href="#C" transform="matrix(0 -16.32 -16.32 0 226.25 411.467)" fill="#333"/><use xlink:href="#e" transform="matrix(0 -16.32 -16.32 0 220.946 394.788)" fill="#333"/><use xlink:href="#l" transform="matrix(0 -16.32 -16.32 0 221.126 383.707)" fill="#333"/><use xlink:href="#B" transform="matrix(0 -16.32 -16.32 0 221.044 374.926)" fill="#333"/><use xlink:href="#i" transform="matrix(0 -16.32 -16.32 0 221.126 370.08)" fill="#333"/><clipPath id="aS"><path transform="matrix(1 0 0 -1 0 576)" d="M265.574 39.926h138.363v233.761H265.574z"/></clipPath><g clip-path="url(#aS)"><path d="M272.493 503.262h55.345v-44.374h-55.345v44.374z" fill="#3274a1"/><path stroke-width="1.2" stroke-miterlimit="10" fill="none" stroke="#505050" d="M272.493 503.262h55.345v-44.374h-55.345v44.374z"/></g><clipPath id="aT"><path transform="matrix(1 0 0 -1 0 576)" d="M265.574 39.926h138.363v233.761H265.574z"/></clipPath><g clip-path="url(#aT)"><path d="M341.674 525.449h55.345V472.32h-55.345v53.128z" fill="#e1812c"/><path stroke-width="1.2" stroke-miterlimit="10" fill="none" stroke="#505050" d="M341.674 525.449h55.345V472.32h-55.345v53.128z"/></g><clipPath id="aU"><path transform="matrix(1 0 0 -1 0 576)" d="M265.574 39.926h138.363v233.761H265.574z"/></clipPath><g clip-path="url(#aU)"><path d="m393.56 334.19-6.918-12.751h6.883v-8.5h.07v8.5h6.883z"/><path stroke-width="2" stroke-miterlimit="10" fill="none" stroke="#000" d="m393.56 334.19-6.918-12.751h6.883v-8.5h.07v8.5h6.883z"/></g><clipPath id="aV"><path transform="matrix(1 0 0 -1 0 576)" d="M265.574 39.926h138.363v233.761H265.574z"/></clipPath><g clip-path="url(#aV)"><path stroke-width="1.2" stroke-linecap="round" stroke-linejoin="round" fill="none" stroke="#505050" d="M300.165 503.262v22.187"/></g><clipPath id="aW"><path transform="matrix(1 0 0 -1 0 576)" d="M265.574 39.926h138.363v233.761H265.574z"/></clipPath><g clip-path="url(#aW)"><path stroke-width="1.2" stroke-linecap="round" stroke-linejoin="round" fill="none" stroke="#505050" d="M300.165 458.888v-22.186"/></g><clipPath id="aX"><path transform="matrix(1 0 0 -1 0 576)" d="M265.574 39.926h138.363v233.761H265.574z"/></clipPath><g clip-path="url(#aX)"><path stroke-width="1.2" stroke-linecap="round" stroke-linejoin="round" fill="none" stroke="#505050" d="M286.329 525.449H314"/></g><clipPath id="aY"><path transform="matrix(1 0 0 -1 0 576)" d="M265.574 39.926h138.363v233.761H265.574z"/></clipPath><g clip-path="url(#aY)"><path stroke-width="1.2" stroke-linecap="round" stroke-linejoin="round" fill="none" stroke="#505050" d="M286.329 436.702H314"/></g><clipPath id="aZ"><path transform="matrix(1 0 0 -1 0 576)" d="M265.574 39.926h138.363v233.761H265.574z"/></clipPath><g clip-path="url(#aZ)"><path stroke-width="1.2" stroke-linecap="round" stroke-linejoin="round" fill="none" stroke="#505050" d="M369.346 525.449h0"/></g><clipPath id="ba"><path transform="matrix(1 0 0 -1 0 576)" d="M265.574 39.926h138.363v233.761H265.574z"/></clipPath><g clip-path="url(#ba)"><path stroke-width="1.2" stroke-linecap="round" stroke-linejoin="round" fill="none" stroke="#505050" d="M369.346 472.321h0"/></g><clipPath id="bb"><path transform="matrix(1 0 0 -1 0 576)" d="M265.574 39.926h138.363v233.761H265.574z"/></clipPath><g clip-path="url(#bb)"><path stroke-width="1.2" stroke-linecap="round" stroke-linejoin="round" fill="none" stroke="#505050" d="M355.51 525.449h27.673"/></g><clipPath id="bc"><path transform="matrix(1 0 0 -1 0 576)" d="M265.574 39.926h138.363v233.761H265.574z"/></clipPath><g clip-path="url(#bc)"><path stroke-width="1.2" stroke-linecap="round" stroke-linejoin="round" fill="none" stroke="#505050" d="M355.51 472.321h27.673"/></g><clipPath id="bd"><path transform="matrix(1 0 0 -1 0 576)" d="M265.574 39.926h138.363v233.761H265.574z"/></clipPath><g clip-path="url(#bd)"><path d="m369.346 316.474 2.122-3.536-2.122-3.535-2.121 3.535z" fill="#505050"/><path stroke-miterlimit="10" fill="none" stroke="#505050" d="m369.346 316.474 2.122-3.536-2.122-3.535-2.121 3.535z"/></g><clipPath id="be"><path transform="matrix(1 0 0 -1 0 576)" d="M265.574 39.926h138.363v233.761H265.574z"/></clipPath><g clip-path="url(#be)"><path stroke-width="7" stroke-linejoin="round" fill="none" stroke="#505050" d="M272.493 481.075h55.345"/></g><clipPath id="bf"><path transform="matrix(1 0 0 -1 0 576)" d="M265.574 39.926h138.363v233.761H265.574z"/></clipPath><g clip-path="url(#bf)"><path stroke-width="7" stroke-linejoin="round" fill="none" stroke="#505050" d="M341.674 525.449h55.345"/></g><path stroke-linecap="square" stroke-miterlimit="10" fill="none" stroke="#d5d6d5" d="M265.574 536.074V302.313M403.937 536.074V302.313M265.574 536.074h138.363M265.574 302.313h138.363"/></svg>